<?xml version="1.0" standalone="no"?>
<!DOCTYPE svg PUBLIC "-//W3C//DTD SVG 20010904//EN"
 "http://www.w3.org/TR/2001/REC-SVG-20010904/DTD/svg10.dtd">
<svg version="1.0" xmlns="http://www.w3.org/2000/svg"
 width="2456.000000pt" height="2456.000000pt" viewBox="0 0 2456.000000 2456.000000"
 preserveAspectRatio="xMidYMid meet">
<metadata>
Created by potrace 1.14, written by Peter Selinger 2001-2017
</metadata>
<g transform="translate(0.000000,2456.000000) scale(0.100000,-0.100000)"
fill="#000000" stroke="none">
<path d="M0 21960 c0 -1430 2 -2600 5 -2600 12 0 135 134 135 146 0 7 4 14 8
16 5 2 25 28 44 58 38 59 102 130 117 130 18 0 51 -68 62 -124 5 -31 17 -75
24 -97 8 -22 14 -43 13 -47 -1 -4 1 -14 4 -22 55 -160 149 -448 150 -459 1 -8
9 -16 18 -18 20 -5 74 -119 66 -140 -3 -8 -2 -12 3 -9 9 6 13 -2 56 -129 16
-44 31 -84 35 -90 4 -5 17 -38 30 -73 12 -34 27 -65 32 -68 4 -3 6 -35 2 -72
-6 -57 -4 -65 7 -54 8 7 19 26 24 42 6 16 14 30 20 31 5 1 30 -34 55 -77 72
-126 169 -264 221 -317 52 -52 68 -57 48 -14 -6 14 -9 37 -5 50 5 21 14 25 56
31 27 4 50 11 50 16 0 6 11 10 24 10 13 0 30 7 37 16 7 9 24 20 37 25 22 9 23
13 19 67 -3 44 -25 106 -94 267 -49 116 -110 271 -136 345 -44 130 -97 319
-97 350 0 8 39 105 86 215 47 110 105 252 129 315 24 63 66 174 93 245 27 72
77 209 111 305 53 150 81 226 176 470 7 19 32 82 54 140 23 58 64 177 92 265
70 222 82 246 93 193 8 -37 34 -200 40 -248 13 -100 -14 -258 -97 -581 -62
-239 -67 -278 -77 -644 -6 -187 -15 -376 -20 -420 -17 -136 -13 -263 11 -334
15 -44 25 -61 35 -57 9 3 14 -1 15 -12 0 -10 5 -6 11 11 8 23 15 27 51 28 23
0 69 2 102 4 132 7 131 8 210 -435 24 -135 44 -216 65 -265 5 -11 14 -38 22
-60 20 -62 38 -87 60 -81 21 5 74 -10 96 -27 11 -9 9 -13 -10 -20 -21 -7 -17
-10 35 -32 32 -12 64 -28 72 -35 11 -9 19 -7 39 15 24 26 25 29 20 153 -3 70
-13 192 -24 272 -67 511 -94 956 -87 1455 4 305 8 395 21 455 20 91 42 163 64
210 16 36 53 155 76 245 7 28 22 68 33 90 11 22 26 61 33 88 7 26 16 47 21 47
4 0 10 15 14 33 9 42 61 154 80 173 8 9 15 24 15 35 0 10 4 19 9 19 5 0 12 12
15 26 4 14 16 35 27 47 11 12 23 34 26 50 3 15 9 27 14 27 5 0 20 21 34 48 71
130 192 265 273 302 28 13 52 27 52 30 0 4 33 13 73 20 103 17 468 4 522 -20
54 -23 92 -29 142 -23 42 4 57 3 64 -8 6 -10 11 -11 17 -3 4 6 19 14 35 18 15
3 27 11 27 16 0 6 8 10 19 10 10 0 24 7 31 15 7 8 20 15 29 15 9 0 33 11 53
25 20 14 40 25 43 25 6 0 23 13 55 41 10 10 33 20 51 24 19 4 37 12 40 17 3 5
66 20 139 32 99 17 138 29 149 42 9 11 27 20 41 22 14 2 40 12 58 23 18 10 41
19 50 19 10 0 26 6 37 13 11 7 36 19 55 27 42 15 119 48 141 60 9 5 34 12 55
15 41 7 122 34 139 45 16 12 86 32 155 46 139 28 180 39 180 46 0 4 8 8 19 8
16 0 56 15 136 50 83 37 123 43 318 45 108 1 200 -1 203 -6 3 -5 14 -9 25 -9
10 0 19 -7 19 -15 0 -8 5 -15 10 -15 6 0 30 -18 54 -40 24 -22 49 -40 57 -40
27 0 104 -45 114 -67 6 -12 21 -30 33 -40 35 -30 51 -167 58 -524 5 -244 2
-381 -11 -614 -14 -231 -18 -445 -17 -925 0 -755 5 -837 83 -1485 24 -200 31
-286 26 -307 -5 -18 -17 -26 -59 -36 -30 -6 -66 -12 -81 -12 -15 0 -27 -4 -27
-9 0 -5 -28 -11 -62 -14 -152 -12 -202 -18 -213 -27 -6 -5 -33 -14 -60 -20
-28 -6 -68 -19 -90 -29 -44 -21 -213 -51 -287 -51 -26 0 -59 -5 -74 -10 -15
-6 -48 -11 -73 -11 -25 -1 -68 -7 -96 -15 -107 -29 -183 -44 -216 -44 -19 0
-50 -4 -69 -10 -19 -5 -71 -11 -115 -14 -44 -3 -81 -10 -83 -16 -2 -5 -14 -10
-26 -10 -43 0 -230 -45 -291 -70 -11 -4 -51 -21 -90 -36 -38 -15 -81 -35 -95
-45 -14 -9 -41 -24 -60 -33 -62 -30 -175 -90 -205 -111 -17 -12 -48 -27 -70
-34 -22 -8 -42 -17 -45 -21 -8 -10 -254 -130 -268 -130 -7 0 -12 -4 -12 -10 0
-5 -5 -10 -10 -10 -6 0 -71 -29 -145 -65 -75 -36 -140 -65 -145 -65 -6 0 -10
-4 -10 -10 0 -5 -20 -15 -44 -21 -25 -6 -47 -17 -50 -25 -6 -14 -63 -45 -143
-75 -29 -11 -53 -25 -53 -30 0 -5 -14 -9 -31 -9 -17 0 -28 -4 -24 -10 3 -5 2
-10 -4 -10 -5 0 -12 6 -14 13 -3 6 -6 3 -6 -9 -1 -15 -11 -24 -41 -33 -22 -6
-40 -16 -40 -21 0 -6 -7 -10 -15 -10 -14 0 -53 -18 -65 -30 -3 -3 -25 -15 -51
-28 -25 -12 -74 -49 -110 -80 -35 -32 -76 -63 -91 -70 -16 -6 -28 -16 -28 -21
0 -5 -9 -11 -20 -14 -11 -3 -20 -11 -20 -19 0 -8 -16 -22 -35 -31 -20 -9 -38
-24 -41 -32 -9 -22 -60 -75 -73 -75 -6 0 -11 -9 -11 -19 0 -10 -7 -21 -15 -25
-8 -3 -20 -17 -27 -31 -6 -14 -16 -25 -22 -25 -26 -1 -136 -185 -136 -228 0
-42 -11 -72 -26 -72 -10 0 -14 -15 -14 -55 0 -41 -4 -55 -15 -55 -9 0 -23 -29
-40 -82 -14 -46 -29 -92 -34 -103 -6 -11 -20 -54 -33 -95 -14 -46 -28 -75 -37
-75 -14 0 -16 -3 -45 -65 -21 -47 -38 -73 -53 -83 -7 -4 -17 -25 -23 -47 -6
-21 -16 -45 -23 -52 -14 -16 -32 -47 -64 -109 -12 -26 -29 -52 -37 -58 -8 -7
-24 -41 -36 -77 -20 -60 -40 -91 -40 -63 0 19 -29 -23 -30 -42 0 -9 -13 -36
-30 -60 -16 -24 -30 -52 -30 -61 0 -10 -7 -18 -15 -18 -8 0 -15 -6 -15 -13 0
-8 -9 -22 -20 -32 -15 -13 -20 -31 -20 -67 0 -36 -4 -48 -15 -48 -11 0 -15
-11 -15 -40 0 -29 4 -40 15 -40 11 0 15 -11 15 -40 0 -33 3 -40 20 -40 17 0
20 -7 20 -40 0 -33 3 -40 19 -40 16 0 20 -8 23 -37 3 -33 7 -38 30 -41 18 -2
31 -13 42 -35 8 -18 23 -39 33 -48 27 -24 53 -58 53 -69 0 -6 6 -10 13 -10 8
0 22 -18 32 -40 10 -22 23 -40 30 -40 6 0 21 -18 34 -40 12 -22 29 -40 37 -40
9 0 14 -12 15 -37 1 -21 3 -30 6 -20 6 24 25 17 41 -16 9 -19 26 -29 70 -41
31 -9 70 -23 85 -31 18 -9 73 -17 153 -21 68 -4 124 -10 124 -14 0 -7 81 -14
315 -26 66 -4 116 -11 125 -19 8 -7 36 -16 62 -19 26 -4 51 -13 55 -19 5 -7
27 -21 50 -31 23 -10 40 -22 38 -27 -3 -4 13 -10 35 -14 22 -4 40 -11 40 -16
0 -5 6 -9 14 -9 7 0 19 -6 25 -14 7 -8 35 -22 64 -31 29 -9 54 -20 57 -24 7
-11 162 -69 204 -77 20 -3 36 -10 36 -14 0 -4 16 -11 36 -15 55 -10 154 -65
147 -81 -3 -8 -10 -14 -17 -15 -6 0 -2 -5 9 -10 17 -8 15 -8 -7 -4 -21 4 -31
0 -44 -20 -14 -22 -23 -25 -76 -25 -76 0 -73 -16 8 -49 126 -51 239 -76 409
-90 210 -19 213 -20 173 -66 -67 -77 -233 -148 -375 -160 -87 -7 -262 12 -411
44 -51 11 -98 18 -105 15 -18 -8 -77 -91 -77 -110 0 -29 31 -69 87 -109 30
-22 62 -47 72 -55 15 -14 62 -45 113 -75 53 -32 130 -89 135 -101 3 -8 11 -14
19 -14 7 0 23 -10 35 -22 17 -18 23 -20 27 -9 3 10 8 7 18 -10 7 -13 13 -18
14 -11 0 17 20 15 20 -3 0 -28 -88 -183 -201 -355 -129 -194 -189 -288 -189
-295 0 -2 -17 -35 -37 -72 -45 -82 -142 -286 -258 -543 -115 -254 -247 -482
-348 -601 -126 -148 -370 -328 -575 -425 -193 -91 -205 -98 -239 -132 -41 -40
-86 -129 -103 -201 -18 -78 -2 -256 21 -220 5 9 11 4 19 -17 7 -16 17 -38 23
-49 6 -11 18 -34 27 -52 16 -34 99 -133 139 -168 13 -11 36 -32 52 -48 16 -15
32 -27 36 -27 5 0 20 -11 35 -25 15 -13 28 -20 30 -14 2 6 14 2 28 -10 19 -15
22 -23 12 -29 -10 -7 -8 -13 8 -27 19 -18 20 -18 20 3 0 28 6 28 42 -3 31 -26
48 -32 48 -15 0 6 18 10 40 10 36 0 40 -2 40 -25 0 -20 5 -25 25 -25 23 0 25
-4 25 -40 0 -29 -4 -40 -15 -40 -11 0 -15 -11 -15 -40 0 -41 -19 -58 -21 -17
0 21 -1 21 -8 2 -5 -11 -7 -23 -4 -27 2 -5 -1 -8 -6 -8 -6 0 -11 -5 -11 -11 0
-6 7 -8 16 -5 11 4 14 1 10 -12 -4 -11 4 -30 20 -49 37 -46 131 -197 174 -283
74 -145 96 -230 145 -545 48 -307 100 -517 194 -775 17 -47 36 -94 41 -105 17
-37 67 -189 95 -292 37 -134 35 -136 -111 -181 -60 -18 -117 -38 -126 -43 -10
-5 -27 -9 -37 -9 -11 0 -22 -4 -25 -9 -3 -5 -21 -12 -40 -15 -19 -4 -39 -13
-46 -21 -7 -8 -19 -15 -26 -15 -8 0 -14 -9 -14 -20 0 -11 -4 -20 -10 -20 -5 0
-10 -9 -10 -20 0 -11 5 -20 10 -20 6 0 10 -8 10 -18 0 -19 28 -37 84 -53 18
-5 56 -4 95 2 135 22 310 9 414 -30 16 -6 53 -37 81 -68 49 -52 76 -63 76 -30
0 17 56 40 80 34 11 -3 20 -1 20 4 0 23 42 7 58 -22 22 -41 61 -87 62 -73 0 6
-9 23 -20 37 -11 14 -20 29 -19 34 3 12 -17 57 -71 163 -192 376 -230 454
-230 466 0 8 -4 14 -10 14 -5 0 -10 9 -10 19 0 11 -4 22 -9 26 -5 3 -13 20
-17 37 -3 18 -10 39 -14 48 -5 8 -13 35 -20 60 -6 25 -16 59 -21 76 -5 17 -9
40 -9 51 0 11 -26 127 -59 259 -93 378 -106 441 -116 564 -3 41 -10 89 -15
105 -5 17 -19 75 -31 130 -28 134 -71 260 -126 369 -48 97 -144 258 -175 292
-10 11 -18 23 -18 27 0 20 -132 159 -140 147 -9 -14 -40 -2 -40 17 0 8 -4 12
-9 8 -5 -3 -12 -1 -16 4 -3 6 -12 8 -20 4 -10 -3 -15 1 -15 13 -1 11 -23 36
-50 57 -28 21 -50 45 -50 53 0 8 -7 26 -16 39 -9 13 -17 30 -18 37 -4 16 -14
45 -29 78 -6 14 -10 28 -9 32 1 4 -8 15 -21 25 -12 10 -31 34 -41 53 -11 19
-23 37 -27 40 -4 3 -9 14 -11 25 -2 15 3 20 25 21 15 2 27 -1 27 -5 0 -4 16
-13 37 -20 37 -14 83 -55 83 -76 0 -22 51 -56 93 -61 154 -19 469 -43 555 -44
57 0 112 -4 122 -10 40 -22 50 -163 25 -364 -38 -307 -47 -480 -35 -736 6
-135 17 -301 25 -370 15 -125 49 -301 64 -330 5 -9 12 -36 16 -60 6 -41 31
-142 69 -277 15 -57 65 -192 76 -208 12 -17 39 -98 46 -138 3 -20 10 -40 15
-43 5 -3 9 -18 9 -35 0 -16 5 -29 10 -29 6 0 13 -8 17 -17 31 -93 171 -342
245 -438 207 -268 574 -643 853 -871 268 -220 724 -497 1075 -654 203 -91 471
-196 630 -248 171 -55 650 -202 745 -227 145 -39 207 -56 320 -90 302 -90 768
-179 1370 -260 105 -14 267 -37 360 -50 496 -69 966 -112 1485 -135 129 -5
266 -12 303 -15 77 -5 382 10 502 25 44 5 186 19 315 30 129 11 242 22 250 25
8 2 94 9 190 14 282 17 504 40 835 87 303 43 394 60 680 131 77 19 154 37 170
40 17 3 32 9 35 14 4 6 112 38 220 64 14 4 54 15 90 25 36 10 128 35 205 55
154 41 340 94 453 131 40 13 96 26 125 29 29 4 62 11 75 16 12 5 32 13 45 19
12 5 40 14 62 19 22 6 130 40 240 76 110 36 268 86 351 110 83 24 206 65 275
90 223 83 482 186 560 222 118 55 141 29 47 -51 -23 -20 -53 -39 -65 -42 -34
-9 -28 -24 10 -24 42 0 128 56 238 157 79 72 100 85 230 142 79 35 155 70 169
77 57 31 301 126 307 120 6 -5 -90 -141 -117 -166 -3 -3 -18 -22 -34 -43 -15
-21 -65 -80 -110 -130 -44 -51 -147 -169 -228 -264 -134 -155 -193 -213 -387
-383 -65 -56 -98 -77 -71 -45 14 17 13 17 -10 10 -23 -7 -23 -7 -7 9 9 10 22
14 28 10 8 -4 9 -3 5 4 -10 17 -23 15 -44 -6 -20 -20 -522 -226 -587 -241 -49
-11 -293 -76 -355 -95 -161 -48 -202 -61 -265 -82 -113 -38 -233 -74 -335 -99
-139 -35 -319 -83 -328 -89 -6 -3 -406 -86 -419 -86 -1 0 -3 24 -3 53 0 28 -3
82 -7 119 -5 60 -10 72 -43 108 -54 59 -70 48 -70 -47 0 -60 5 -83 25 -121 25
-47 34 -121 15 -123 -5 -1 -16 -2 -22 -3 -7 -1 -15 -3 -18 -7 -3 -3 -43 -10
-90 -16 -47 -7 -123 -20 -170 -31 -47 -11 -130 -25 -185 -32 -55 -7 -122 -18
-150 -26 -27 -7 -95 -20 -150 -28 -96 -14 -157 -24 -420 -66 -66 -11 -147 -22
-180 -25 -33 -2 -94 -9 -135 -14 -41 -5 -127 -12 -190 -16 -152 -8 -370 -39
-511 -71 -63 -15 -136 -31 -164 -37 -27 -6 -52 -14 -55 -17 -3 -3 -40 -14 -84
-23 -99 -21 -155 -46 -156 -70 0 -10 -16 -31 -35 -48 -43 -38 -74 -97 -56
-108 8 -5 11 -35 10 -93 -2 -81 14 -148 33 -148 5 0 8 -5 8 -12 0 -13 49 -68
61 -68 5 0 19 -10 32 -22 55 -52 101 -88 112 -88 6 0 22 -11 35 -25 14 -15 30
-23 41 -20 11 4 18 -1 22 -16 5 -19 11 -21 45 -15 32 5 51 0 103 -26 35 -17
66 -35 69 -39 3 -4 19 -11 35 -14 17 -4 49 -13 72 -21 23 -7 49 -11 57 -8 7 3
30 -2 51 -10 27 -12 72 -16 164 -16 77 0 131 -4 138 -11 6 -6 44 -14 84 -19
130 -16 234 -35 249 -45 8 -5 33 -10 55 -11 77 -5 215 -27 215 -36 0 -4 36 -8
79 -8 44 0 81 -4 83 -10 2 -5 91 -11 212 -14 123 -3 214 -10 220 -16 5 -5 18
-10 27 -10 10 0 19 -4 21 -10 2 -5 29 -12 61 -14 67 -5 97 -14 97 -27 0 -13
78 -11 82 1 2 8 47 8 148 1 94 -7 168 -7 210 -1 129 19 317 12 630 -21 52 -6
111 -12 131 -14 56 -5 262 -37 279 -43 8 -3 26 -6 40 -7 14 0 26 -4 28 -10 5
-16 45 -27 52 -15 5 8 52 7 161 -2 186 -15 293 -13 351 7 24 8 75 15 115 15
48 0 76 5 86 14 7 8 48 20 90 26 42 7 77 16 77 21 0 5 18 13 40 19 22 6 40 14
40 19 0 5 35 14 77 21 42 6 83 18 90 26 8 8 33 14 57 14 23 0 46 4 52 8 12 11
107 39 162 47 23 4 42 10 42 14 0 12 48 31 80 31 16 0 39 4 52 9 13 6 63 15
111 22 48 6 94 18 102 26 8 7 49 23 91 34 43 11 90 27 105 35 15 7 35 14 44
14 8 0 23 4 33 9 9 5 36 15 59 22 24 7 43 16 43 21 0 4 5 8 11 8 5 0 38 13 72
29 34 15 73 33 87 39 14 7 32 16 40 21 39 24 173 82 202 88 18 3 41 14 51 23
9 9 35 23 57 30 22 7 40 17 40 22 0 4 9 8 19 8 11 0 22 4 25 9 3 5 17 12 31
15 14 4 35 16 46 27 11 11 24 17 29 14 6 -4 10 -2 10 4 0 6 18 16 40 22 22 7
40 18 40 26 0 8 6 13 13 12 25 -3 37 1 35 14 -2 7 11 13 32 15 19 2 46 12 60
22 14 10 38 22 53 25 14 4 31 13 38 21 6 8 20 14 30 14 10 0 20 4 23 8 3 5 38
25 78 45 40 20 85 48 100 62 15 14 32 25 38 25 6 0 8 5 5 10 -3 6 1 10 10 10
19 0 71 34 96 62 19 21 49 24 49 6 0 -7 9 -2 19 11 13 17 20 20 23 11 3 -9 19
0 49 28 44 42 69 53 69 30 0 -9 3 -9 12 0 7 7 20 12 30 12 10 0 18 4 18 10 0
5 17 12 38 16 20 4 39 10 42 13 13 17 89 69 122 85 21 9 38 21 38 26 0 6 7 10
15 10 9 0 20 11 25 25 9 23 19 29 46 26 6 -1 17 6 24 14 7 8 21 15 31 15 11 0
19 6 19 13 0 7 14 21 30 31 21 12 29 23 25 35 -3 11 5 22 28 36 17 10 36 24
40 32 4 7 13 13 18 13 6 0 25 11 43 25 18 14 36 22 40 18 4 -4 9 2 12 13 3 11
13 24 23 29 61 34 89 60 111 102 14 26 30 51 37 56 7 4 18 13 25 20 7 7 20 18
30 23 9 5 36 28 61 51 25 23 47 39 51 36 3 -3 8 2 12 11 4 9 28 28 53 41 26
13 61 35 77 50 17 14 60 37 96 49 36 13 80 31 99 41 19 10 54 28 79 40 25 13
58 34 74 48 17 14 33 24 38 21 7 -4 41 22 89 68 10 9 19 14 22 12 8 -8 55 22
81 54 15 17 36 34 46 37 11 4 20 15 20 24 0 10 16 31 37 47 20 15 52 42 70 61
19 18 39 33 44 33 5 0 9 7 9 15 0 8 8 15 18 15 10 0 26 13 35 30 10 16 38 51
62 77 25 27 45 53 45 59 0 11 73 66 103 77 9 4 17 11 17 16 0 5 16 15 35 22
23 9 38 22 41 36 4 13 23 32 43 44 36 21 81 78 81 105 0 8 6 14 14 14 8 0 16
14 19 32 5 38 -9 150 -22 176 -5 9 -19 38 -31 65 -12 26 -25 47 -29 47 -4 0
-15 14 -24 30 -10 17 -23 30 -28 30 -5 0 -19 9 -31 20 -12 11 -17 20 -10 20
20 0 1 29 -21 32 -11 2 -22 10 -24 18 -4 13 -3 13 6 0 9 -13 11 -12 11 3 0 10
-16 42 -35 72 -33 53 -55 69 -55 43 -1 -7 -7 -2 -15 12 -16 28 -20 54 -5 30 5
-8 10 -11 10 -7 0 14 -33 67 -42 67 -4 0 -8 12 -8 26 0 27 -51 84 -76 84 -7 0
-21 11 -30 24 -12 20 -17 66 -21 234 l-6 210 26 28 c15 16 27 37 27 46 0 14 8
18 40 18 22 0 40 4 40 9 0 5 14 12 31 16 17 4 47 18 66 31 20 13 42 24 49 24
8 0 14 5 14 10 0 6 6 10 13 10 8 0 40 26 72 58 57 57 94 115 96 149 1 51 57
-191 145 -627 33 -165 123 -556 136 -589 5 -14 12 -64 15 -111 5 -82 3 -93
-65 -330 -39 -135 -89 -310 -111 -390 -22 -80 -65 -228 -96 -330 -31 -102 -76
-255 -101 -340 -66 -230 -257 -792 -332 -975 -35 -88 -88 -221 -117 -295 -29
-74 -83 -205 -120 -290 -37 -85 -76 -177 -87 -205 -10 -27 -25 -63 -32 -80 -8
-16 -35 -79 -61 -140 -60 -141 -298 -616 -357 -716 -64 -107 -122 -183 -163
-215 -44 -33 -42 -55 7 -69 l37 -10 -65 -90 c-189 -262 -377 -448 -534 -531
-52 -27 -61 -29 -162 -27 -60 1 -108 -2 -108 -7 0 -17 111 -50 168 -50 167 0
406 119 633 316 58 50 99 68 99 44 0 -10 -28 -59 -40 -70 -3 -3 -21 -30 -40
-60 -224 -359 -526 -763 -790 -1054 -19 -21 -39 -44 -45 -51 -5 -6 -55 -57
-110 -113 l-100 -102 80 0 c78 0 81 1 139 43 72 51 312 244 369 295 258 231
733 733 1087 1147 57 66 115 134 129 150 294 336 669 837 1018 1363 153 230
289 437 303 460 49 84 47 84 55 -23 7 -114 21 -192 41 -241 14 -35 40 -49 30
-16 -10 33 -26 237 -26 337 l0 99 57 103 c58 103 74 122 71 81 -4 -45 68 -272
171 -539 67 -175 66 -165 6 -341 -51 -149 -111 -311 -219 -588 -65 -166 -224
-604 -352 -970 -111 -317 -261 -727 -311 -850 -61 -147 -149 -317 -217 -415
l-66 -95 153 0 c175 0 152 -10 239 110 30 41 99 136 153 210 156 212 336 479
645 956 52 80 106 160 119 178 21 28 22 29 16 6 -7 -22 -6 -23 8 -11 15 11 14
7 -2 -35 -11 -27 -29 -76 -41 -109 -13 -33 -26 -69 -30 -80 -4 -11 -31 -70
-59 -131 -28 -61 -51 -116 -51 -123 0 -6 -5 -11 -11 -11 -5 0 -7 -5 -4 -10 4
-6 1 -17 -5 -25 -6 -8 -20 -29 -29 -47 -59 -110 -150 -283 -180 -343 -19 -38
-37 -72 -41 -75 -4 -3 -29 -48 -57 -101 -28 -52 -65 -118 -81 -145 -17 -27
-43 -71 -58 -99 -15 -27 -38 -65 -52 -82 l-24 -33 25 0 c20 0 29 9 46 48 12
26 32 61 44 77 93 125 90 122 83 90 -7 -29 -7 -29 8 -10 8 11 16 23 16 27 0 3
22 39 48 80 48 73 131 213 186 311 15 29 50 91 77 138 27 48 49 91 49 97 0 6
3 12 8 14 8 4 23 31 148 276 51 100 102 195 114 211 11 16 20 34 20 39 0 5 17
45 39 88 21 44 46 101 56 127 10 26 22 50 27 53 10 7 9 -246 -3 -421 -16 -236
-30 -411 -39 -490 -5 -44 -14 -127 -20 -185 -23 -211 -71 -351 -174 -505 l-44
-65 158 0 157 0 5 99 c4 88 9 107 44 182 39 84 148 278 187 333 12 17 29 44
38 60 68 129 175 315 189 331 36 42 360 667 409 790 26 66 92 175 101 170 13
-8 20 -52 29 -175 6 -74 9 23 10 333 1 290 -2 437 -9 437 -10 0 -189 -359
-205 -410 -4 -14 -36 -85 -71 -158 -35 -73 -64 -134 -64 -136 0 -3 -16 -39
-35 -80 -19 -42 -35 -79 -35 -82 0 -16 -291 -586 -382 -747 -21 -38 -38 -70
-38 -72 0 -1 -16 -29 -35 -61 -40 -66 -74 -108 -81 -101 -3 3 -1 76 5 163 6
88 15 303 21 479 17 503 23 569 66 694 20 58 80 196 133 306 54 110 103 216
111 235 7 19 20 44 27 55 7 11 13 26 13 35 0 8 48 103 108 211 59 107 127 235
152 282 25 48 47 87 51 87 3 0 25 -35 49 -78 24 -42 46 -79 50 -82 3 -3 26
-35 50 -72 25 -37 56 -73 69 -80 13 -7 30 -26 37 -43 13 -29 13 -27 14 34 0
59 -3 67 -37 109 -45 55 -170 246 -178 273 -4 13 23 75 81 187 47 92 93 174
100 183 32 37 35 177 29 1644 -3 803 -5 1624 -5 1825 0 201 2 4198 5 8883 l5
8517 -2450 0 c-2327 0 -2450 -1 -2450 -17 0 -10 -5 -25 -11 -33 -8 -11 -9 -7
-5 18 l6 32 -1443 0 -1442 -1 -49 -83 c-27 -46 -74 -117 -104 -157 -30 -41
-98 -137 -150 -214 -121 -178 -134 -195 -145 -195 -15 0 -231 92 -244 104 -10
9 -6 22 21 61 18 28 71 115 116 195 46 80 103 175 127 213 24 37 43 70 43 73
0 3 -20 4 -46 2 l-45 -3 -75 -145 c-42 -80 -88 -165 -103 -190 -14 -25 -35
-61 -45 -81 -10 -19 -30 -49 -45 -66 l-26 -31 -55 26 c-30 15 -104 47 -165 71
-132 53 -516 228 -528 240 -6 6 15 40 49 83 31 40 62 79 67 86 7 9 -6 12 -59
12 l-69 0 -65 -98 c-74 -111 -290 -399 -318 -425 -18 -17 -23 -16 -100 23 -45
22 -84 40 -87 40 -3 0 -54 24 -113 54 -59 30 -162 82 -230 116 -68 34 -125 60
-127 58 -6 -5 383 -237 502 -299 57 -30 101 -59 99 -65 -5 -14 -89 -122 -133
-173 l-32 -36 -123 61 c-150 75 -355 165 -878 384 -205 85 -422 163 -515 185
-38 8 -122 33 -185 54 -233 77 -278 91 -296 91 -21 -1 119 -61 436 -186 550
-218 755 -302 870 -357 121 -58 384 -176 520 -234 58 -25 109 -48 113 -53 9
-8 -120 -179 -158 -210 -15 -12 -94 -15 -529 -15 -493 -1 -878 -13 -1151 -35
-505 -42 -1031 -111 -1405 -186 -234 -47 -584 -148 -665 -192 l-30 -17 34 -3
c50 -5 341 43 716 117 83 16 229 41 325 56 96 14 216 32 265 40 102 16 417 51
545 60 47 3 139 10 205 15 436 36 1165 53 1335 31 l55 -7 -85 -7 c-47 -4 -168
-12 -270 -18 -404 -22 -501 -29 -659 -44 -202 -19 -435 -49 -589 -76 -217 -37
-516 -120 -517 -144 0 -21 82 -15 312 24 131 22 272 45 313 50 151 22 779 72
1060 86 58 3 132 7 165 10 l60 4 -55 -11 -55 -12 59 -8 c32 -4 61 -9 63 -11 2
-2 -52 -7 -119 -11 -162 -9 -234 -23 -216 -41 22 -22 336 -33 456 -16 28 4 52
4 52 -1 0 -39 -667 -713 -995 -1004 -260 -231 -621 -533 -819 -684 -399 -305
-566 -440 -566 -456 0 -3 64 44 143 104 78 60 194 145 257 190 351 249 892
697 1255 1040 205 193 581 566 712 705 l102 109 498 -7 c274 -3 613 -12 753
-20 140 -8 266 -12 279 -8 l24 6 -19 -32 c-17 -29 -393 -499 -659 -823 -213
-260 -461 -554 -550 -652 -49 -55 -128 -143 -174 -195 -159 -183 -654 -676
-926 -925 -134 -122 -397 -340 -500 -412 -167 -118 -218 -141 -510 -229 -540
-162 -1000 -262 -1515 -332 -195 -26 -838 -26 -1055 0 -339 41 -557 99 -774
207 -67 33 -128 60 -137 60 -12 0 -9 -12 16 -57 36 -67 77 -114 158 -180 63
-51 114 -103 102 -103 -4 0 -26 7 -49 15 -66 23 -163 39 -541 89 -407 53 -461
56 -506 21 -17 -13 -17 -16 -4 -25 8 -5 39 -10 69 -10 29 0 81 -4 115 -10 33
-5 115 -14 181 -20 147 -14 320 -38 360 -50 17 -5 63 -14 104 -20 162 -23 415
-84 581 -140 239 -81 388 -115 634 -145 311 -38 488 -86 1231 -332 413 -136
814 -279 1045 -371 746 -298 1794 -797 2395 -1139 125 -71 205 -112 205 -105
0 6 -116 78 -205 128 -11 6 -119 69 -240 139 -230 133 -351 194 -1255 632
-194 95 -259 123 -625 274 -82 33 -168 69 -190 79 -43 18 -81 33 -270 104 -66
24 -183 69 -260 99 -227 88 -928 325 -1123 378 -59 16 -114 31 -122 34 -8 2
-67 15 -130 29 l-115 25 104 0 c58 1 143 5 190 11 47 5 149 17 226 26 172 19
302 43 508 94 182 46 517 156 692 228 66 27 188 77 270 111 466 193 1036 513
1775 999 129 85 282 182 340 215 357 206 979 627 1375 931 232 178 482 366
486 366 2 0 4 -208 4 -462 1 -746 9 -888 80 -1534 38 -340 113 -778 201 -1179
55 -247 83 -428 84 -535 0 -54 -3 -59 -111 -220 -128 -191 -214 -300 -388
-495 -69 -77 -127 -142 -130 -145 -3 -3 -31 -34 -60 -70 -30 -36 -96 -108
-146 -160 -51 -52 -141 -149 -201 -215 -99 -109 -519 -533 -751 -759 l-92 -90
-53 29 c-29 16 -138 79 -243 140 -303 178 -450 255 -496 260 -9 1 -61 26 -115
55 -55 29 -164 86 -244 127 -202 105 -193 99 -186 136 l6 32 -16 -25 c-10 -14
-18 -26 -19 -28 -3 -3 -120 51 -320 148 -93 45 -215 102 -270 127 -146 66
-155 71 -149 88 4 8 11 12 17 8 6 -4 25 -8 42 -10 l30 -2 -26 14 c-14 8 -91
39 -170 70 -79 30 -151 59 -159 64 -16 9 -17 24 -6 89 11 61 -9 53 -24 -10 -7
-29 -14 -56 -16 -59 -2 -3 -103 27 -226 68 -123 40 -317 100 -433 133 -115 33
-220 64 -231 69 -18 8 -23 22 -29 70 -8 72 -25 72 -25 0 0 -27 -3 -49 -7 -49
-19 0 -329 83 -337 90 -10 10 24 259 59 438 27 133 29 152 17 152 -19 0 -56
-171 -98 -450 -9 -63 -20 -119 -24 -123 -4 -5 -34 -2 -66 6 -33 8 -71 18 -86
21 -25 6 -27 10 -30 68 -2 38 -8 63 -15 66 -8 2 -13 -5 -13 -16 0 -18 -4 -19
-32 -11 -204 53 -426 93 -760 134 -105 14 -138 21 -144 34 -4 9 -9 142 -11
296 -4 269 -7 314 -19 302 -13 -12 -34 -147 -33 -202 2 -64 -12 -90 -21 -40
-11 59 -19 -1 -9 -66 11 -71 37 -293 35 -295 0 -1 -35 2 -76 7 -77 8 -441 46
-720 74 -85 8 -301 24 -480 35 -178 11 -338 22 -355 26 -19 3 -40 19 -59 45
-17 21 -33 39 -38 39 -4 0 -8 7 -8 15 0 8 -4 15 -10 15 -5 0 -19 33 -31 73
-12 39 -25 77 -29 82 -4 6 -15 34 -24 63 -10 28 -24 52 -31 52 -18 0 -35 -53
-35 -110 0 -71 -20 -163 -39 -181 -27 -25 -67 -13 -91 28 -11 19 -20 44 -21
56 0 21 -1 21 -8 2 -7 -16 -10 -12 -15 23 -10 53 -26 45 -26 -12 0 -73 -9 -78
-151 -81 -68 -1 -127 2 -130 7 -3 5 -100 11 -215 13 -115 2 -224 9 -242 14
-18 5 -50 27 -72 48 l-41 38 -9 170 c-19 340 -31 1033 -20 1133 6 52 13 98 15
102 3 4 23 10 45 12 36 3 40 1 40 -19 0 -13 5 -23 10 -23 6 0 10 9 10 20 0 11
2 20 4 20 14 0 72 -25 79 -34 9 -13 -1 112 -14 174 -9 44 -28 156 -71 415 -29
177 -31 533 -5 710 10 66 29 197 43 290 39 262 64 390 84 423 22 36 87 63 101
41 5 -8 6 -59 4 -114 -11 -239 52 -952 136 -1540 57 -395 124 -814 143 -885 7
-30 17 -73 20 -95 17 -102 40 -129 66 -80 20 37 18 242 -3 325 -25 102 -74
605 -102 1045 -13 208 -26 627 -39 1247 -3 167 -1 229 7 235 7 5 39 20 72 33
57 22 297 129 455 203 41 19 154 74 250 121 96 48 252 121 345 163 264 117
939 454 1068 532 116 71 214 115 318 145 61 17 364 74 574 106 77 13 284 51
460 85 473 93 609 112 680 93 28 -8 59 -8 96 -2 49 8 54 12 57 37 2 15 4 27 5
27 3 0 218 38 307 54 176 32 356 17 476 -40 l38 -18 -34 -8 c-35 -8 -185 -27
-370 -48 -93 -10 -387 -44 -665 -75 -239 -28 -511 -73 -720 -119 -289 -64
-349 -80 -555 -145 -102 -33 -283 -83 -402 -111 -120 -29 -223 -59 -230 -67
-10 -12 -2 -13 53 -7 35 4 114 18 174 31 61 14 138 29 172 33 34 5 121 21 195
35 443 88 725 140 893 165 77 11 194 29 260 40 456 74 612 97 725 110 52 6
102 13 110 15 8 2 193 21 410 41 364 35 418 37 685 35 160 -1 317 -3 350 -4
l60 -2 3 32 c3 28 0 33 -25 38 -15 4 -35 9 -43 12 -8 3 -172 9 -365 13 l-350
8 -113 35 c-62 19 -121 42 -131 51 -9 9 -26 16 -37 17 -32 2 95 27 214 42 121
16 152 31 152 74 0 12 3 23 7 23 3 0 142 -45 307 -99 313 -103 437 -134 458
-113 6 6 9 14 7 17 -8 8 -242 95 -255 95 -7 0 -14 3 -16 8 -4 8 -382 132 -588
192 -80 23 -165 50 -190 60 -95 38 -457 138 -568 157 -18 3 -35 9 -38 14 -3 5
-20 9 -39 9 -18 0 -35 4 -37 9 -1 5 -29 11 -61 14 -33 2 -62 9 -66 16 -4 7
-19 12 -32 12 -77 1 -110 11 -119 34 -5 13 -18 29 -30 35 -11 6 -20 15 -20 20
0 11 108 84 154 105 17 7 42 23 56 34 l25 21 -391 0 c-410 0 -428 -2 -464 -45
-7 -8 -19 -15 -26 -15 -8 0 -14 -4 -14 -10 0 -5 -6 -10 -13 -10 -7 0 -26 -14
-43 -31 -47 -50 -174 -144 -244 -180 -55 -28 -75 -33 -130 -33 -85 1 -269 41
-295 64 -11 9 -30 25 -42 35 -12 10 -20 22 -17 26 3 5 -4 26 -16 48 -21 41
-21 81 -2 118 7 12 12 24 12 28 0 3 -409 5 -910 5 -500 -1 -910 -5 -910 -9 0
-5 -54 -12 -120 -16 -66 -4 -120 -11 -120 -16 0 -5 -7 -9 -15 -9 -8 0 -15 5
-15 10 0 6 -38 10 -93 10 -54 0 -114 6 -143 15 -41 12 -150 15 -680 15 l-631
0 -12 -56 c-7 -31 -20 -73 -29 -93 -18 -38 -56 -91 -66 -91 -3 0 -22 -18 -42
-40 -20 -22 -43 -40 -50 -40 -8 0 -29 -16 -47 -35 -18 -19 -47 -38 -65 -41
-18 -4 -32 -10 -32 -15 0 -12 -318 -10 -322 1 -2 5 -25 12 -53 14 -27 3 -51
10 -53 16 -2 5 -16 10 -31 10 -16 0 -40 11 -54 24 -25 24 -26 25 -11 56 9 17
17 36 18 43 1 7 5 17 9 24 4 6 4 18 1 27 -4 10 18 40 65 90 81 85 88 106 36
106 -33 0 -64 -28 -48 -44 3 -3 -3 -6 -15 -6 -15 0 -20 -5 -16 -15 4 -8 1 -15
-5 -15 -6 0 -11 -7 -11 -15 0 -24 -34 -72 -48 -68 -7 3 -10 -1 -6 -10 4 -12 0
-14 -15 -10 -14 3 -21 13 -21 29 0 28 20 74 32 74 4 0 8 18 8 40 0 22 -4 40
-10 40 -5 0 -10 -9 -10 -20 0 -11 -6 -20 -14 -20 -8 0 -18 -9 -21 -20 -3 -11
-10 -20 -14 -20 -5 0 -11 -14 -15 -31 -4 -20 -10 -28 -17 -23 -7 4 -17 0 -23
-8 -6 -9 -20 -17 -31 -19 -15 -3 -21 -14 -23 -42 -3 -31 -7 -37 -26 -37 -12 0
-32 -9 -44 -20 -12 -11 -28 -20 -36 -20 -8 0 -21 -8 -28 -18 -7 -10 -19 -22
-27 -26 -10 -7 -12 -1 -7 25 3 19 3 27 -1 19 -3 -8 -9 -17 -13 -20 -12 -8 -40
-68 -40 -85 0 -8 -6 -15 -14 -15 -7 0 -26 -18 -41 -40 -54 -78 -115 -124 -205
-157 -47 -17 -116 -34 -155 -37 -207 -21 -344 -38 -375 -48 -19 -7 -37 -13
-40 -13 -29 -6 -97 -30 -105 -37 -5 -4 -15 -8 -22 -8 -8 0 -24 -9 -36 -20 -12
-12 -32 -23 -44 -26 -13 -4 -23 -9 -23 -13 0 -4 -25 -16 -55 -26 -40 -14 -58
-16 -66 -8 -6 6 -11 42 -12 79 0 53 5 81 23 119 13 28 26 52 29 55 4 3 19 25
36 50 47 71 223 299 282 365 29 33 53 65 53 72 0 6 8 18 18 25 16 12 42 51 42
63 0 3 -1087 5 -2415 5 l-2415 0 0 -2600z m2506 2443 c-3 -10 -6 -38 -8 -63
-1 -25 -10 -67 -21 -95 -10 -27 -25 -72 -33 -100 -9 -27 -21 -68 -29 -90 -27
-81 -67 -234 -80 -305 -2 -14 -11 -56 -19 -95 -23 -105 -47 -260 -56 -355 -10
-100 -41 -187 -77 -214 -17 -13 -49 -21 -95 -24 -57 -4 -78 -1 -121 18 -100
43 -122 54 -154 77 -17 13 -35 23 -39 23 -3 0 -20 15 -36 33 -27 30 -29 37
-25 97 2 50 12 83 40 142 20 43 37 80 37 83 0 2 8 14 17 25 9 11 28 39 42 63
40 67 79 125 91 132 6 4 22 23 35 43 53 80 109 157 117 160 4 2 8 10 8 18 0 8
7 17 15 20 8 4 15 10 15 15 0 9 136 187 176 229 12 14 35 39 49 55 88 98 116
123 143 124 8 1 11 -6 8 -16z m12755 -61 c76 -58 336 -192 559 -287 74 -32
139 -62 144 -66 8 -7 -28 -85 -97 -209 -29 -53 -34 -56 -59 -33 -13 11 -41 26
-63 33 -22 7 -114 51 -205 98 -91 47 -239 123 -330 170 -91 47 -164 89 -162
94 4 13 176 218 183 218 3 0 17 -8 30 -18z m1463 -107 c-18 -84 -19 -86 -44
-80 -14 4 -28 9 -32 13 -7 8 82 165 89 158 3 -2 -3 -43 -13 -91z m-4734 36
c130 -36 247 -70 370 -109 130 -42 316 -95 430 -125 127 -33 232 -65 250 -77
25 -17 -4 -27 -114 -40 -56 -6 -168 -21 -251 -32 -251 -34 -361 -18 -436 65
-52 56 -35 53 -245 47 -107 -3 -155 5 -354 62 -125 36 -202 67 -194 79 3 5 42
28 86 50 45 23 93 50 108 61 76 56 191 62 350 19z m-1585 -106 c190 -24 249
-55 219 -114 -8 -15 -24 -33 -37 -38 -35 -16 -306 -27 -339 -15 -31 13 -118
78 -134 101 -23 33 -1 55 67 67 89 16 90 16 224 -1z m6263 -58 c18 1 22 -4 22
-30 0 -42 -41 -280 -50 -290 -9 -10 -193 56 -198 71 -3 10 144 242 163 254 5
4 17 5 25 1 8 -3 25 -6 38 -6z m-1580 -20 c26 -13 67 -35 92 -49 244 -140 498
-282 558 -312 82 -41 81 -39 19 -121 -17 -22 -31 -41 -32 -42 -1 -2 -91 46
-201 105 -110 59 -291 152 -402 207 -111 55 -202 103 -202 107 0 9 104 128
113 128 4 0 28 -10 55 -23z m4442 -271 c48 -250 57 -337 41 -403 -10 -38 -124
-308 -136 -321 -8 -9 -85 42 -85 57 0 38 44 354 80 579 22 134 40 256 40 271
0 27 12 51 17 34 1 -4 21 -102 43 -217z m-8059 141 c40 -12 74 -27 76 -34 10
-30 -387 -88 -465 -67 -54 15 8 78 118 121 48 19 179 9 271 -20z m4656 -41
c54 -25 111 -48 126 -52 19 -4 26 -11 23 -21 -7 -17 -116 -176 -149 -218 l-24
-29 -59 31 c-33 17 -85 41 -116 53 -59 22 -66 28 -49 46 5 5 28 45 51 89 56
107 80 145 90 145 5 0 53 -20 107 -44z m-1134 -37 c56 -28 154 -79 217 -114
63 -34 189 -102 280 -151 91 -49 174 -94 185 -101 23 -14 25 -15 125 -58 91
-39 142 -67 147 -81 2 -6 -5 -21 -15 -34 l-19 -24 -214 13 c-118 6 -301 16
-408 21 -106 5 -196 12 -200 16 -8 7 37 44 54 44 23 0 25 29 2 51 -39 38 -159
111 -297 182 -74 38 -136 70 -138 72 -3 3 112 161 141 193 11 12 24 22 29 22
5 0 54 -23 111 -51z m-2949 -47 c9 -14 -34 -30 -125 -47 -94 -16 -263 -32
-291 -27 -25 5 -22 18 5 26 37 10 200 45 232 49 59 8 174 7 179 -1z m4465 -86
l113 -50 -6 -55 c-13 -117 -39 -261 -48 -261 -5 0 -79 33 -166 73 -86 41 -164
77 -173 80 -14 4 -1 30 69 137 47 72 88 129 92 128 4 -2 57 -25 119 -52z
m2067 -206 l-1 -260 -30 6 c-53 10 -65 15 -65 27 0 13 92 487 95 487 1 0 1
-117 1 -260z m-8570 141 c-14 -21 -143 -89 -236 -124 -52 -19 -194 -60 -315
-91 -121 -30 -274 -73 -340 -94 -66 -21 -158 -49 -205 -62 -71 -19 -312 -97
-479 -155 -24 -9 -46 -14 -48 -11 -8 8 8 27 18 21 5 -4 9 -1 9 4 0 6 -11 11
-25 11 -28 0 -35 19 -7 21 9 1 21 1 25 0 4 -1 18 5 30 14 12 8 28 15 37 15 8
0 28 7 44 15 16 9 82 29 145 45 108 27 148 40 226 75 117 53 362 134 565 187
41 10 125 34 185 53 179 54 226 67 300 80 74 13 81 12 71 -4z m5938 -52 c134
-54 135 -55 102 -116 -51 -93 -40 -90 -155 -34 -55 27 -106 51 -113 54 -9 3
-3 23 22 71 19 36 37 66 39 66 3 0 50 -18 105 -41z m-1087 -67 c109 -54 209
-103 223 -109 36 -17 -206 -16 -385 1 -77 7 -155 11 -172 9 -18 -2 -33 -1 -33
2 0 3 24 34 53 69 30 34 64 77 77 94 13 18 27 32 31 32 5 0 97 -44 206 -98z
m-6293 -30 c15 -25 -392 -187 -794 -318 -107 -34 -140 -41 -140 -26 0 15 53
57 90 72 19 8 37 17 40 20 14 18 95 61 180 95 127 50 372 130 440 144 30 6 64
13 75 15 38 7 104 6 109 -2z m7662 -47 c22 -9 105 -48 187 -87 137 -67 147
-74 147 -100 0 -33 -1 -33 -170 -14 -98 11 -239 48 -287 74 -9 6 -2 25 28 75
22 37 44 67 48 67 5 0 26 -7 47 -15z m-2026 -235 c0 -14 -30 -40 -46 -40 -8 0
-14 5 -14 10 0 6 -7 10 -15 10 -8 0 -15 -6 -15 -12 0 -9 -3 -8 -10 2 -6 10
-27 15 -62 16 -100 2 -93 8 15 13 59 4 116 7 127 8 11 1 20 -2 20 -7z m1458
-6 c94 -3 172 -9 172 -13 0 -3 -7 -17 -16 -30 -16 -23 -20 -23 -123 -17 -221
13 -432 19 -924 25 l-508 6 22 23 22 24 591 -6 c325 -3 669 -9 764 -12z m611
-40 c59 -13 131 -47 131 -61 0 -7 -266 3 -372 13 -38 4 -68 10 -68 13 0 3 8
20 19 36 l18 31 104 -8 c57 -5 133 -15 168 -24z m2251 17 l55 -18 5 -167 c3
-93 3 -169 0 -171 -3 -1 -42 15 -88 36 -67 31 -82 42 -78 56 3 10 12 72 21
138 16 117 21 145 27 145 2 0 28 -9 58 -19z m-4577 -8 c-7 -2 -19 -2 -25 0 -7
3 -2 5 12 5 14 0 19 -2 13 -5z m2352 -159 c126 -8 231 -16 232 -17 4 -5 -18
-188 -28 -240 -7 -32 -26 -79 -43 -105 -63 -97 -718 -732 -996 -966 -69 -57
-172 -146 -230 -196 -58 -50 -179 -148 -269 -218 -90 -70 -211 -165 -270 -211
-113 -88 -366 -271 -466 -335 -33 -22 -98 -67 -145 -101 -121 -89 -392 -259
-588 -368 -92 -52 -185 -104 -207 -117 -45 -25 -95 -46 -80 -32 6 4 51 39 100
77 157 121 311 251 470 400 66 62 144 133 173 156 87 73 488 484 637 654 182
207 411 483 649 780 40 50 193 252 341 450 147 198 280 373 294 389 26 28 27
28 111 22 47 -3 188 -13 315 -22z m3088 14 c32 -16 33 -18 6 -87 -51 -136 -75
-148 -65 -34 9 92 16 133 25 133 4 0 19 -6 34 -12z m-10499 -7 c3 -5 -4 -11
-15 -14 -12 -3 -18 -10 -14 -16 3 -6 2 -11 -4 -11 -5 0 -16 -6 -24 -14 -44
-45 -103 -76 -672 -358 -390 -194 -544 -263 -557 -250 -4 4 -1 51 5 104 13
103 19 112 82 151 97 58 218 111 395 172 52 19 154 55 225 80 194 70 237 83
395 125 156 41 176 45 184 31z m-7231 -220 c19 -12 41 -21 50 -21 9 0 22 -6
29 -13 7 -7 24 -18 38 -25 237 -118 280 -148 280 -195 0 -27 -41 -118 -105
-232 -133 -238 -205 -387 -314 -650 -51 -121 -98 -233 -106 -250 -7 -16 -32
-77 -55 -135 -23 -58 -53 -132 -67 -165 -14 -33 -31 -73 -38 -90 -7 -16 -52
-122 -100 -235 -106 -248 -146 -351 -191 -495 -19 -60 -39 -123 -45 -140 -13
-36 -23 -75 -43 -174 -25 -118 -56 -150 -88 -88 -49 92 -93 301 -133 627 -9
69 -18 132 -21 141 -10 36 -34 301 -34 387 0 51 7 128 16 170 16 79 65 242 90
299 8 17 14 37 14 45 0 8 4 18 9 23 7 9 21 40 76 170 7 17 24 55 37 85 32 70
77 181 118 290 33 85 46 116 135 305 113 243 168 333 226 374 31 21 42 23 111
18 54 -4 88 -11 111 -26z m16828 -12 c82 -33 105 -50 96 -73 -4 -11 -21 -9
-91 9 -47 13 -89 26 -94 29 -9 5 -4 66 6 66 3 0 40 -14 83 -31z m23 -140 c38
-10 73 -24 77 -30 8 -14 13 -58 34 -354 18 -236 38 -445 60 -613 25 -189 23
-204 -40 -331 -31 -60 -73 -141 -94 -178 -21 -37 -60 -111 -88 -163 -210 -396
-250 -470 -275 -510 l-29 -45 5 120 c4 66 11 170 16 230 6 61 17 218 25 350
17 265 119 1125 176 1487 12 77 -1 74 133 37z m2433 -151 c-3 -8 -6 -5 -6 6
-1 11 2 17 5 13 3 -3 4 -12 1 -19z m-27 -394 c0 -2 -7 -4 -15 -4 -8 0 -15 4
-15 10 0 5 7 7 15 4 8 -4 15 -8 15 -10z m17 -46 c-3 -8 -6 -5 -6 6 -1 11 2 17
5 13 3 -3 4 -12 1 -19z m-1 -586 c1 -271 4 -549 7 -620 4 -99 3 -110 -3 -52
-16 139 -42 893 -35 990 9 124 9 121 0 153 -7 25 -5 28 11 25 18 -3 19 -22 20
-496z m-1347 -297 c11 -243 48 -799 71 -1050 50 -551 110 -1077 164 -1422 2
-13 0 -23 -3 -23 -17 0 -58 166 -102 405 -16 94 -45 233 -64 310 -48 201 -80
363 -131 668 -56 337 -61 371 -129 877 -31 228 -45 314 -55 324 -6 6 -10 17
-10 26 0 8 53 122 117 254 l118 238 7 -173 c3 -96 11 -291 17 -434z m-963
-1342 c-3 -126 -11 -399 -17 -608 -6 -241 -15 -404 -23 -445 -9 -40 -63 -173
-144 -350 -72 -157 -134 -298 -138 -313 -3 -15 -8 -26 -10 -24 -9 8 -125 574
-155 752 -11 66 -22 183 -26 260 l-6 140 94 142 c194 293 314 480 367 575 30
54 57 98 60 98 3 0 2 -102 -2 -227z m450 -758 c25 -127 42 -202 165 -725 71
-300 147 -597 196 -765 20 -66 42 -147 50 -180 7 -33 18 -72 24 -87 9 -23 -3
-66 -86 -310 -54 -156 -132 -375 -175 -488 -43 -113 -97 -263 -121 -335 -23
-71 -46 -134 -50 -138 -10 -13 -18 79 -29 368 -6 143 -15 355 -21 470 -10 225
-13 1658 -4 1990 6 221 16 381 22 350 2 -11 15 -78 29 -150z m751 -437 c-3 -7
-5 -2 -5 12 0 14 2 19 5 13 2 -7 2 -19 0 -25z m-1226 -898 c5 -404 12 -807 17
-895 5 -88 8 -162 6 -163 -4 -6 -32 95 -54 198 -12 52 -44 187 -71 300 -89
364 -170 713 -176 758 -4 32 -3 42 7 40 8 -2 23 25 40 72 14 41 58 136 98 210
39 74 79 164 88 198 16 57 19 62 27 40 6 -13 13 -334 18 -758z m-9999 56 c29
-13 48 -53 78 -170 124 -477 256 -719 563 -1033 39 -40 69 -74 66 -76 -2 -2
-38 -12 -78 -21 l-75 -16 -35 28 c-83 66 -322 394 -454 622 -61 105 -164 313
-200 401 -41 103 -42 140 -6 202 17 28 38 57 47 63 18 13 64 13 94 0z m403
-21 c99 -8 220 -17 269 -20 52 -2 93 -9 97 -16 4 -8 24 -10 53 -7 41 5 46 4
46 -15 0 -23 28 -117 78 -262 64 -186 184 -399 319 -568 25 -31 43 -60 40 -63
-15 -15 -249 141 -331 221 -39 37 -60 70 -85 129 -18 43 -35 94 -38 112 -4 21
-11 34 -21 34 -11 0 -13 -8 -8 -37 3 -21 9 -58 12 -83 l6 -45 -61 62 c-33 35
-77 89 -97 120 -21 32 -39 52 -42 45 -10 -31 100 -205 286 -448 45 -60 108
-144 138 -188 54 -77 55 -78 22 -59 -18 12 -70 41 -115 67 -300 168 -440 278
-611 481 -24 29 -42 43 -42 34 0 -26 99 -180 190 -296 79 -101 294 -326 368
-386 41 -33 34 -47 -22 -47 -50 0 -102 31 -187 112 -242 231 -413 535 -513
918 -14 52 -28 115 -31 139 -5 46 1 85 14 77 4 -3 13 0 21 5 8 5 26 7 40 4 14
-2 106 -11 205 -20z m-642 -176 c19 -41 47 -103 62 -139 15 -36 35 -83 45
-105 10 -22 35 -78 55 -125 74 -174 242 -473 341 -607 40 -55 43 -63 26 -63
-12 0 -33 5 -49 11 -15 6 -59 20 -98 31 -131 37 -168 72 -270 263 -112 207
-176 395 -211 610 -22 135 -20 231 6 252 18 14 43 -20 93 -128z m1747 -214
c75 -309 113 -427 227 -702 3 -7 -1 -13 -9 -13 -19 0 -271 76 -296 89 -32 17
-163 176 -243 295 -98 146 -161 269 -203 397 -35 104 -40 134 -38 199 l2 36
53 2 c73 3 236 -17 268 -34 15 -7 51 -14 81 -15 29 -1 57 -7 61 -13 6 -7 7 -4
3 6 -3 10 0 32 7 50 l11 33 9 -45 c5 -25 35 -153 67 -285z m6795 218 c16 -132
122 -711 164 -893 10 -47 29 -128 40 -180 12 -52 43 -175 68 -273 l45 -177
-61 -103 c-220 -366 -529 -837 -591 -901 -22 -22 -31 -26 -42 -17 -13 12 -195
155 -213 169 -319 237 -623 447 -865 597 -96 60 -177 110 -179 112 -2 1 117
126 266 275 522 528 693 707 918 957 318 354 407 455 416 472 17 32 26 21 34
-38z m-8832 -30 c8 -10 40 -115 71 -234 58 -226 63 -243 128 -402 22 -54 38
-101 34 -104 -10 -11 -68 24 -133 79 -32 27 -88 66 -125 88 -50 30 -81 59
-130 122 -87 112 -115 156 -143 223 -19 47 -21 63 -13 96 6 21 14 37 18 34 4
-2 15 4 25 15 10 11 24 20 32 20 7 0 13 3 13 8 0 16 136 70 181 71 14 1 33 -7
42 -16z m2486 -100 c1 35 15 40 76 26 28 -6 75 -13 105 -16 34 -3 67 -14 89
-29 39 -26 70 -31 72 -11 1 6 5 -1 9 -18 7 -28 8 -28 9 -5 l2 25 14 -25 14
-25 1 29 c0 49 8 25 20 -64 20 -152 87 -379 184 -625 34 -85 47 -127 41 -133
-16 -16 -380 180 -507 273 -59 43 -71 66 -109 212 -27 103 -32 138 -35 273 -1
93 0 141 5 120 8 -32 8 -33 10 -7z m-279 -5 c0 -9 4 -8 10 2 9 13 11 13 20 0
7 -11 10 -11 10 -2 0 7 4 11 9 8 5 -3 26 -8 47 -12 22 -3 45 -11 52 -16 9 -8
12 -5 13 8 0 18 1 18 9 -1 8 -19 9 -19 9 3 1 12 6 22 11 22 6 0 10 -29 10 -67
0 -98 18 -230 45 -331 l23 -87 -30 35 c-103 120 -284 450 -248 450 6 0 10 -6
10 -12z m-2640 -110 c38 -52 130 -187 130 -192 0 -18 201 -348 330 -541 89
-134 140 -217 140 -228 0 -22 -367 22 -435 52 -26 11 -74 55 -135 122 -52 57
-113 122 -135 145 -85 87 -208 232 -237 279 -62 100 -88 232 -48 242 10 3 22
14 25 24 4 10 15 19 25 19 27 0 70 21 64 31 -3 5 6 9 19 9 14 0 27 7 30 14 7
18 118 55 168 55 28 1 40 -5 59 -31z m3686 -53 c9 -8 29 -15 45 -15 27 0 29
-2 29 -42 0 -49 28 -166 59 -249 40 -106 124 -230 291 -428 57 -67 101 -123
99 -125 -10 -11 -308 73 -346 97 -83 53 -132 115 -198 252 -35 71 -68 148 -73
170 -6 22 -12 105 -14 185 l-3 145 33 3 c17 2 32 7 32 13 0 14 30 11 46 -6z
m5904 -107 c48 -127 94 -237 185 -448 83 -191 82 -187 48 -250 -68 -127 -74
-143 -71 -182 3 -38 4 -39 21 -21 10 10 40 55 67 101 l48 83 20 -33 c11 -18
30 -55 42 -81 11 -27 64 -135 116 -240 111 -223 128 -270 159 -432 78 -400
202 -832 369 -1277 36 -98 66 -188 66 -202 0 -13 -24 -72 -54 -132 -30 -60
-64 -130 -75 -156 -11 -27 -24 -48 -28 -48 -9 0 -82 150 -136 275 -55 129
-181 493 -331 960 -97 301 -207 717 -266 1005 -17 85 -46 218 -65 295 -70 290
-182 895 -165 895 4 0 26 -51 50 -112z m-5673 56 c28 -15 56 -24 61 -20 6 3
18 -15 28 -41 75 -208 153 -357 289 -553 54 -78 131 -178 146 -190 20 -15 79
-94 79 -105 0 -17 -144 43 -203 84 -90 63 -274 269 -362 406 -72 111 -88 144
-124 260 -17 55 -36 114 -41 131 -19 57 -15 64 33 59 23 -3 65 -17 94 -31z
m6630 -164 c80 -306 230 -814 310 -1050 14 -41 65 -181 113 -310 114 -306 147
-452 120 -536 -40 -131 -283 -675 -295 -662 -6 6 -56 325 -94 608 -92 672
-133 1034 -161 1435 -11 160 -24 351 -30 425 -10 131 -12 301 -3 250 2 -14 20
-86 40 -160z m-6466 87 c0 -20 1 -21 8 -3 5 12 10 16 14 9 4 -6 4 -18 1 -26
-8 -21 11 -30 26 -12 15 18 70 20 70 3 0 -6 3 -9 6 -5 3 3 18 1 33 -5 14 -5
46 -16 71 -23 83 -24 230 -84 263 -107 17 -13 41 -25 52 -26 28 -5 87 -42 108
-69 22 -27 37 -29 38 -5 1 11 4 8 8 -8 4 -14 13 -24 19 -23 11 3 14 -20 32
-237 10 -125 49 -359 70 -422 5 -16 6 -28 3 -28 -14 0 -172 100 -248 158 -112
83 -297 288 -406 449 -59 87 -151 265 -153 298 0 13 -4 21 -7 19 -4 -2 -9 11
-12 29 -3 17 -9 41 -13 51 -5 14 -4 17 4 12 7 -4 12 -17 13 -29z m45 -23 c-4
-9 -9 -15 -11 -12 -3 3 -3 13 1 22 4 9 9 15 11 12 3 -3 3 -13 -1 -22z m-6396
-54 c0 -13 7 -20 20 -20 19 0 20 -7 20 -120 0 -113 -1 -120 -20 -120 -17 0
-20 -7 -20 -40 0 -33 3 -40 20 -40 17 0 20 -7 20 -40 l0 -40 -40 0 -40 0 0
-40 c0 -33 -3 -40 -20 -40 -17 0 -20 -7 -20 -40 l0 -40 80 0 c89 0 101 -11 47
-45 -29 -18 -31 -24 -28 -67 2 -48 2 -48 -28 -48 -36 0 -38 -8 -11 -38 27 -29
82 -29 115 0 14 12 25 29 25 38 0 31 22 81 34 77 7 -3 11 10 11 37 0 40 1 41
38 44 l37 3 0 80 0 79 30 0 c28 0 30 2 30 40 0 29 4 40 15 40 13 0 15 -7 9
-36 -4 -24 -3 -35 3 -31 14 9 33 -15 61 -77 13 -28 20 -39 17 -24 -4 23 -2 26
12 21 10 -4 29 -20 43 -37 14 -16 32 -37 40 -46 9 -9 57 -63 107 -121 118
-136 197 -209 319 -295 106 -75 310 -203 437 -274 42 -24 77 -47 77 -52 0 -4
-12 -11 -26 -14 -44 -11 -404 3 -490 19 -154 29 -303 91 -508 209 -101 58
-212 103 -221 89 -10 -17 68 -129 133 -189 159 -151 348 -245 715 -360 32 -10
58 -22 58 -27 -2 -25 -400 -6 -631 31 -217 34 -579 124 -760 189 -150 54 -298
137 -343 193 -10 12 -29 22 -42 22 -13 0 -30 7 -39 15 -8 8 -17 15 -20 15 -12
0 -80 52 -93 70 -8 12 -26 20 -42 20 -15 0 -36 9 -46 20 -10 11 -38 33 -62 48
-23 15 -43 33 -43 41 0 8 -6 11 -15 7 -16 -6 -19 -1 -29 47 -4 16 -17 32 -31
39 -14 6 -25 17 -25 24 0 17 -47 64 -65 64 -7 0 -15 -6 -18 -12 -3 -10 -8 -10
-18 1 -8 8 -9 11 -3 8 7 -4 14 5 18 24 10 50 7 59 -14 59 -17 0 -20 7 -20 40
0 33 3 40 20 40 13 0 20 7 20 20 0 17 7 20 40 20 33 0 40 -3 40 -20 0 -17 7
-20 40 -20 33 0 40 3 40 20 0 17 7 20 40 20 33 0 40 -3 40 -20 0 -17 7 -20 40
-20 l40 0 0 40 0 40 40 0 40 0 0 40 c0 33 3 40 20 40 17 0 20 7 20 40 l0 40
60 0 60 0 0 40 0 40 81 0 81 0 -4 45 -3 45 42 0 c32 0 43 4 43 15 0 11 11 15
40 15 29 0 40 4 40 15 0 11 11 15 40 15 26 0 40 5 40 13 0 7 18 23 40 37 22
14 40 28 40 32 0 5 7 8 15 8 8 0 15 -4 15 -10 0 -5 11 -10 25 -10 20 0 25 5
25 23 0 31 7 37 47 37 26 0 33 -4 33 -20z m1460 -60 c0 -5 6 -7 14 -4 16 6
104 -77 169 -161 26 -33 102 -134 170 -224 67 -91 132 -175 145 -188 12 -13
22 -28 22 -33 0 -6 5 -10 11 -10 6 0 30 -15 53 -32 46 -37 246 -239 246 -250
0 -31 -289 -30 -415 2 -209 52 -451 194 -602 354 -113 118 -184 226 -197 297
-7 42 10 99 30 99 8 0 25 11 37 24 12 13 41 33 64 44 23 12 45 26 48 32 4 6
16 8 28 5 12 -2 16 -2 10 1 -37 17 26 46 81 37 18 -3 42 0 52 6 24 13 34 14
34 1z m12930 -445 c23 -66 69 -185 102 -265 33 -80 69 -173 81 -208 l22 -64
-41 -76 c-22 -42 -78 -149 -123 -237 -85 -163 -200 -374 -321 -590 -37 -66
-92 -166 -124 -222 -31 -56 -61 -105 -67 -109 -16 -9 -33 21 -88 151 -67 158
-84 233 -85 375 0 130 5 147 159 560 95 253 182 511 305 907 21 67 41 126 45
132 3 7 26 -44 50 -111 23 -68 62 -177 85 -243z m-14967 328 c-13 -2 -33 -2
-45 0 -13 2 -3 4 22 4 25 0 35 -2 23 -4z m2711 -307 c89 -101 90 -124 4 -83
-77 38 -103 57 -141 107 -39 51 -82 161 -73 185 6 17 63 -39 210 -209z m-1887
152 c-3 -7 -5 -2 -5 12 0 14 2 19 5 13 2 -7 2 -19 0 -25z m7092 -43 c19 -2 47
-13 62 -24 15 -12 58 -32 95 -46 37 -14 74 -31 82 -37 20 -17 45 -19 55 -5 6
8 7 7 4 -5 -3 -9 1 -37 9 -63 7 -26 15 -61 17 -78 3 -18 7 -39 10 -47 3 -8 15
-53 26 -100 20 -88 43 -163 66 -215 39 -89 55 -128 52 -131 -1 -2 -37 8 -80
22 -69 23 -83 33 -140 94 -64 68 -107 125 -144 190 -50 89 -91 170 -112 220
-21 53 -61 213 -61 247 0 16 1 16 13 0 6 -10 27 -19 46 -22z m-6422 -189 c59
-39 137 -89 173 -112 144 -92 470 -374 470 -406 0 -25 -211 30 -316 83 -158
79 -376 261 -487 406 -54 71 -110 171 -102 184 3 5 39 -13 80 -39 40 -26 122
-78 182 -116z m-1894 147 c-13 -2 -33 -2 -45 0 -13 2 -3 4 22 4 25 0 35 -2 23
-4z m8226 -83 c-1 -31 -2 -29 -14 20 -18 69 -18 71 0 40 8 -14 14 -41 14 -60z
m-19 -2 c0 -19 -2 -20 -10 -8 -13 19 -13 30 0 30 6 0 10 -10 10 -22z m-8447 5
c-13 -2 -33 -2 -45 0 -13 2 -3 4 22 4 25 0 35 -2 23 -4z m8953 -93 c3 0 2 5
-2 12 -4 7 -3 8 4 4 7 -4 12 -13 12 -20 0 -14 58 -25 134 -27 38 0 138 -37
107 -38 -8 -1 7 -15 34 -32 38 -24 50 -28 57 -17 6 8 8 -1 4 -27 -2 -22 -13
-140 -22 -262 -11 -129 -22 -223 -28 -223 -5 0 -33 24 -61 53 -60 62 -190 309
-225 427 -12 41 -26 86 -30 100 -5 14 -11 45 -14 70 l-5 45 15 -32 c8 -18 17
-33 20 -33z m443 -167 c6 -21 19 -80 31 -132 31 -142 77 -310 101 -371 11 -30
23 -66 26 -78 6 -23 5 -24 -23 -9 -16 8 -69 33 -117 56 -48 23 -91 49 -94 58
-15 39 39 513 59 513 4 0 12 -17 17 -37z m-5684 -161 c18 -10 18 -11 -11 -12
-31 0 -124 52 -124 69 0 9 84 -26 135 -57z m5908 -32 c8 0 20 -6 26 -14 6 -8
24 -16 39 -19 52 -10 147 -49 155 -63 4 -8 16 -14 26 -14 10 0 32 -7 47 -15
16 -8 37 -15 46 -15 9 0 20 -5 23 -10 4 -6 11 -8 16 -5 5 3 19 -3 31 -14 12
-12 30 -21 40 -21 10 0 21 -6 24 -14 3 -8 18 -19 34 -26 16 -7 31 -18 34 -26
3 -8 16 -14 30 -14 14 0 28 -4 31 -10 3 -5 17 -10 30 -10 13 0 27 -5 30 -10 9
-14 94 -8 88 6 -7 18 13 26 26 10 8 -10 -9 -33 -75 -104 -102 -108 -300 -278
-319 -274 -15 3 -182 104 -243 147 -55 39 -83 98 -128 272 -33 130 -58 319
-35 266 6 -13 17 -23 24 -23z m3505 -267 c22 -71 63 -204 91 -298 125 -422
296 -866 454 -1180 50 -99 114 -227 143 -285 63 -124 117 -222 145 -262 19
-26 20 -30 5 -51 -34 -48 -48 -62 -53 -50 -2 7 -10 10 -17 7 -7 -3 -30 14 -52
38 -57 62 -135 131 -141 124 -3 -3 8 -22 25 -43 36 -46 94 -144 89 -150 -2 -2
-31 27 -63 64 -74 85 -231 250 -399 418 -143 144 -635 571 -903 786 l-24 18
80 113 c44 62 119 174 167 248 49 74 136 207 194 296 58 88 130 200 160 247
30 48 55 87 57 87 1 0 20 -57 42 -127z m-13804 95 c9 -12 16 -39 16 -60 0 -30
4 -38 18 -38 14 0 17 8 15 43 -2 42 -2 42 6 7 4 -20 11 -42 16 -49 5 -10 4
-12 -3 -7 -16 10 -14 -5 3 -28 19 -25 19 -46 0 -46 -24 0 -17 -14 15 -33 17
-10 30 -13 30 -8 0 6 5 11 10 11 6 0 10 -28 10 -65 0 -58 2 -65 20 -65 17 0
20 -7 20 -40 0 -33 3 -40 20 -40 11 0 20 7 20 16 0 8 5 12 10 9 6 -4 9 -14 8
-23 -2 -9 11 -25 28 -36 39 -26 85 -118 84 -168 0 -27 4 -38 15 -38 8 0 15 -7
15 -15 0 -13 44 -65 55 -65 3 0 5 7 5 15 0 8 5 15 10 15 6 0 10 -13 10 -28 0
-23 6 -30 36 -41 30 -11 38 -11 45 0 7 12 12 12 26 1 10 -7 26 -15 36 -18 9
-4 17 -10 17 -14 0 -7 124 -108 220 -180 18 -14 46 -35 61 -47 15 -13 30 -23
34 -23 3 0 23 -13 43 -29 35 -28 225 -141 236 -141 3 0 40 -17 83 -38 43 -21
137 -60 208 -86 141 -53 170 -70 145 -86 -32 -20 -200 -6 -320 27 -72 19 -134
42 -250 93 -158 68 -250 95 -250 72 0 -10 38 -42 50 -42 6 0 10 -4 10 -9 0 -5
9 -12 19 -16 10 -3 21 -15 24 -25 5 -21 -7 -27 -18 -10 -3 6 -22 10 -41 10
-20 0 -45 5 -56 11 -32 17 -129 38 -146 32 -24 -10 35 -53 134 -100 229 -107
381 -163 649 -236 117 -32 148 -45 140 -57 -13 -20 -107 -10 -325 34 -41 8
-113 23 -160 32 -47 10 -94 17 -105 16 -11 -1 -22 2 -25 7 -8 11 -101 1 -94
-11 4 -7 -6 -8 -27 -3 -21 4 -29 3 -21 -3 15 -11 -29 -71 -70 -95 -16 -9 -28
-23 -28 -32 0 -8 -4 -15 -10 -15 -5 0 -18 -9 -28 -21 -14 -14 -41 -23 -91 -30
-83 -12 -93 -10 -391 63 -209 51 -320 71 -320 56 0 -4 -9 -8 -20 -8 -11 0 -20
7 -20 15 0 9 -13 21 -29 28 -31 13 -118 105 -113 120 6 21 -23 77 -40 77 -28
0 -21 13 21 40 41 25 45 40 10 40 -16 0 -19 7 -19 40 l0 40 64 0 c43 0 66 -4
69 -12 3 -10 9 -10 29 0 13 8 31 13 39 12 37 -6 39 -1 39 80 0 64 -3 80 -15
80 -8 0 -15 7 -15 15 0 11 -11 15 -40 15 -29 0 -40 4 -40 15 0 12 -16 15 -80
15 -47 0 -80 4 -80 10 0 6 -11 10 -25 10 -22 0 -25 4 -25 40 0 29 -4 40 -15
40 -11 0 -15 -11 -15 -40 0 -22 -4 -40 -10 -40 -6 0 -10 33 -10 80 l0 80 70 0
70 0 0 80 c0 73 2 80 20 80 17 0 20 -7 20 -40 l0 -40 40 0 40 0 0 40 c0 33 -3
40 -20 40 -17 0 -20 7 -20 40 0 33 3 40 20 40 17 0 20 -7 20 -40 l0 -40 40 0
40 0 0 -40 0 -40 -40 0 -40 0 0 -40 0 -40 160 0 c153 0 160 1 160 20 0 18 -7
20 -80 20 l-80 0 0 100 0 100 -40 0 -40 0 0 80 0 80 -60 0 -60 0 0 40 0 40 60
0 60 0 0 40 c0 33 -3 40 -20 40 -17 0 -20 7 -20 40 l0 40 -40 0 -40 0 0 40 c0
33 3 40 20 40 17 0 20 7 20 40 0 33 3 40 20 40 17 0 20 7 20 39 0 33 -4 40
-22 44 -13 2 -4 5 20 6 30 1 42 5 42 16 0 11 12 15 44 15 35 0 48 -5 60 -22z
m616 -31 c0 -19 30 -44 63 -52 24 -6 29 -19 9 -21 -4 0 -25 -6 -47 -12 -50
-15 -55 -15 -55 -1 0 6 7 9 15 5 8 -3 15 -1 15 4 0 6 -4 10 -10 10 -5 0 -10
18 -10 40 0 22 5 40 10 40 6 0 10 -6 10 -13z m130 -137 c5 -10 10 -21 10 -24
0 -8 -54 -8 -74 0 -20 8 -20 19 1 43 19 22 45 15 63 -19z m62 -9 c-9 -5 -13
-23 -11 -49 2 -23 0 -44 -3 -48 -11 -10 -38 23 -38 47 0 22 34 59 54 59 6 0 5
-4 -2 -9z m43 -131 c3 -5 17 -10 31 -10 13 0 24 -4 24 -9 0 -5 12 -11 28 -13
19 -2 26 -8 24 -20 -2 -14 4 -18 32 -18 41 0 68 9 61 20 -3 5 11 16 30 26 33
15 39 15 73 1 20 -8 69 -27 107 -43 39 -15 185 -84 325 -153 289 -143 288
-142 465 -204 174 -60 185 -65 185 -77 0 -16 -67 -12 -285 15 -459 58 -733
153 -952 332 -45 36 -77 69 -75 78 2 10 -5 15 -23 15 -14 0 -25 5 -25 11 0 16
-26 39 -44 39 -9 0 -16 5 -16 10 0 6 6 10 14 10 8 0 18 -4 21 -10z m10606 -92
c-12 -4 -19 -13 -16 -18 4 -6 1 -18 -6 -26 -17 -20 -2 -33 58 -50 80 -22 163
-58 163 -71 0 -7 8 -13 19 -13 10 0 24 -7 31 -15 7 -9 20 -13 28 -10 10 3 27
-7 44 -26 16 -17 32 -29 35 -26 3 4 29 -14 58 -38 29 -25 55 -45 58 -45 7 0
51 -36 86 -71 14 -14 47 -38 74 -53 26 -15 47 -31 47 -36 0 -5 29 -23 65 -40
35 -17 67 -35 70 -40 7 -11 112 -80 121 -80 3 0 17 -9 31 -20 17 -13 41 -20
69 -20 44 0 44 0 44 -36 0 -19 -13 -68 -29 -107 -36 -88 -46 -141 -62 -330
l-12 -147 -42 33 c-381 291 -599 454 -791 590 -137 97 -154 112 -172 155 -49
114 -92 331 -82 415 5 42 13 54 60 97 29 27 58 46 63 43 6 -4 0 -10 -12 -15z
m-4476 -12 c350 -45 1070 -198 1460 -311 166 -48 716 -239 773 -269 15 -8 77
-30 137 -51 61 -20 178 -65 260 -100 83 -34 158 -66 168 -69 9 -3 17 -9 17
-14 0 -21 -647 -482 -678 -482 -9 0 -59 58 -155 180 -15 19 -48 61 -73 93 -28
35 -40 57 -31 57 35 0 114 82 182 189 l70 111 42 0 c23 0 53 5 67 11 28 13 43
39 22 39 -8 0 -16 5 -18 10 -2 7 -19 5 -48 -5 -33 -12 -51 -13 -70 -5 -45 18
-164 40 -220 39 -30 0 -81 -6 -112 -13 -52 -13 -67 -12 -179 10 -68 13 -147
24 -176 24 -53 0 -156 39 -331 124 -40 20 -74 36 -76 36 -2 0 -42 17 -88 38
-45 22 -121 51 -168 67 -47 15 -107 36 -135 46 -51 19 -126 38 -225 57 -30 6
-107 23 -170 38 -99 23 -143 28 -322 32 -172 3 -235 1 -380 -18 -216 -27 -288
-43 -535 -124 -109 -36 -268 -85 -354 -110 -86 -25 -188 -59 -225 -76 -141
-64 -362 -179 -454 -235 -511 -312 -761 -500 -1090 -818 -293 -284 -324 -317
-496 -533 -317 -397 -509 -693 -704 -1084 -215 -429 -304 -663 -415 -1084
-156 -594 -193 -1178 -115 -1791 37 -286 180 -729 322 -995 118 -222 234 -378
422 -566 371 -370 750 -584 1195 -673 76 -15 144 -20 302 -21 112 -1 213 -3
224 -4 11 -2 49 -6 85 -10 89 -10 100 -14 110 -41 9 -23 10 -23 171 -24 88 0
163 -1 164 -3 7 -7 101 -428 141 -631 4 -20 16 -32 42 -43 75 -32 169 -54 227
-53 51 0 76 -7 164 -45 58 -26 109 -45 114 -43 5 1 -39 25 -99 52 -78 35 -123
49 -160 50 -84 3 -264 53 -264 73 0 50 -51 304 -101 506 -17 65 -28 125 -25
132 3 8 20 14 38 14 18 0 51 5 73 10 22 4 90 14 150 20 116 11 253 37 345 65
30 9 75 23 100 30 93 28 170 54 222 77 29 13 78 32 108 42 141 46 440 190 470
227 3 3 20 14 37 23 30 15 103 64 433 287 52 36 106 70 120 77 14 7 35 27 47
44 18 26 23 29 28 15 4 -8 13 -13 20 -10 8 2 29 -6 47 -20 45 -34 113 -67 137
-67 15 0 28 -15 47 -52 32 -63 146 -185 191 -204 18 -8 49 -14 70 -14 59 0
112 -19 129 -45 19 -29 44 -119 44 -160 0 -37 -19 -68 -101 -171 -35 -44 -71
-93 -79 -109 -8 -17 -15 -32 -17 -34 -1 -2 -40 35 -85 82 -86 88 -147 126
-258 162 -89 29 -107 42 -147 107 -30 48 -39 57 -41 41 -4 -25 40 -112 71
-141 12 -11 66 -34 119 -52 140 -45 201 -89 272 -196 43 -64 55 -89 45 -95
-17 -10 2 -33 54 -66 45 -29 72 -69 93 -143 43 -147 104 -227 214 -278 51 -25
67 -27 230 -30 l175 -4 100 -67 c97 -64 179 -139 378 -349 l89 -92 -22 -45
c-26 -53 -89 -110 -132 -119 -47 -9 -134 -7 -164 5 -16 5 -49 30 -76 55 -39
37 -54 44 -86 44 -22 0 -55 -7 -74 -15 -30 -12 -40 -25 -64 -82 -15 -37 -54
-109 -86 -159 -32 -50 -58 -98 -58 -107 0 -22 -9 -21 -34 2 -23 21 -132 61
-168 61 -28 0 -238 -100 -238 -113 0 -12 38 -2 103 27 142 65 147 66 227 35
85 -32 83 -27 76 -159 -4 -63 -12 -149 -17 -191 -10 -70 -15 -81 -56 -128 -32
-37 -40 -51 -28 -51 27 0 82 62 94 105 6 22 18 110 26 195 16 182 26 216 89
304 46 64 106 179 106 203 0 11 86 43 116 43 7 0 34 -22 58 -48 50 -54 94 -72
173 -72 113 0 204 53 252 149 l20 39 37 -19 c39 -20 85 -30 235 -54 133 -21
150 -20 264 20 158 55 177 49 234 -77 35 -76 48 -89 59 -57 8 21 12 17 41 -37
17 -32 79 -118 137 -191 l106 -131 85 -7 c49 -5 152 -2 242 5 270 21 455 14
644 -26 117 -24 200 -79 367 -241 101 -97 160 -133 258 -154 28 -7 52 -15 52
-19 0 -15 -145 -63 -360 -119 -512 -134 -734 -190 -980 -246 -129 -30 -284
-66 -345 -80 -60 -15 -177 -40 -260 -55 -82 -16 -184 -36 -225 -45 -151 -33
-364 -58 -760 -90 -107 -8 -274 -24 -370 -35 -470 -52 -1039 -85 -1300 -75
-195 7 -596 37 -872 65 -108 11 -256 25 -330 30 -73 6 -203 21 -288 35 -85 13
-207 29 -270 35 -268 25 -655 96 -828 151 -70 22 -192 56 -272 75 -400 96
-861 229 -1025 296 -66 27 -223 90 -349 139 -349 136 -516 210 -806 355 -347
174 -424 223 -710 452 -302 242 -392 326 -561 529 -304 364 -542 698 -613 861
-11 23 -21 40 -24 37 -3 -3 0 -17 8 -33 33 -71 45 -104 28 -78 -7 11 -20 27
-30 37 -9 9 -14 20 -11 23 3 3 -6 26 -21 52 -14 25 -26 55 -26 66 0 10 -6 21
-14 24 -8 3 -11 15 -8 31 3 14 1 23 -4 20 -5 -3 -9 16 -10 41 l0 47 9 -35 c5
-19 13 -44 17 -55 5 -11 19 -44 31 -73 31 -74 33 -60 4 24 -132 381 -235 1039
-235 1503 0 455 93 1205 202 1636 96 380 273 837 422 1088 25 43 46 80 46 82
0 3 24 45 53 93 30 48 80 134 112 192 185 335 357 577 723 1023 164 198 408
453 622 647 63 57 171 158 240 224 286 275 526 453 974 723 113 69 354 193
373 193 6 0 183 89 268 135 306 165 436 216 702 274 246 53 699 126 938 151
55 6 174 19 265 30 91 11 203 24 250 29 119 13 522 6 665 -13z m4319 -222 c6
-77 1 -198 -10 -231 -2 -8 -37 9 -96 48 -51 34 -97 65 -102 69 -7 7 180 199
195 200 3 0 9 -39 13 -86z m-10398 -83 c16 -15 205 -88 324 -125 63 -20 176
-49 250 -65 184 -41 661 -118 790 -128 121 -9 133 -22 60 -63 -48 -27 -87 -29
-335 -21 -101 4 -181 -5 -191 -20 -9 -15 -207 3 -301 27 -111 28 -230 83 -342
159 -146 98 -314 245 -280 245 8 0 19 -4 25 -9z m15997 -476 c16 -91 47 -446
49 -566 1 -58 -11 -102 -106 -395 -60 -181 -127 -387 -150 -458 l-42 -129 -46
64 c-25 35 -64 96 -87 134 -23 39 -76 122 -117 185 -72 110 -234 416 -234 441
0 6 53 86 118 178 65 91 131 188 147 214 17 26 75 116 130 200 55 84 136 210
180 280 63 101 81 123 83 105 7 -43 17 -37 18 10 0 26 7 61 14 77 13 28 15 19
20 -110 4 -77 14 -180 23 -230z m-8323 170 c36 -8 79 -17 96 -20 16 -3 68 1
115 9 46 8 100 12 119 10 92 -11 170 -28 170 -37 0 -21 -132 -217 -166 -246
-19 -17 -45 -31 -57 -31 -46 1 -181 93 -272 186 -16 17 -46 41 -65 54 -19 13
-37 27 -40 30 -3 3 -18 12 -34 20 -16 8 -31 20 -33 27 -8 24 49 23 167 -2z
m4031 -165 c5 0 9 -7 9 -15 0 -8 6 -15 13 -15 6 -1 26 -19 42 -40 17 -21 36
-39 43 -40 6 0 12 -6 13 -12 0 -10 2 -10 6 -1 3 10 8 9 20 -2 8 -8 19 -13 24
-10 5 4 9 2 9 -3 0 -6 -7 -12 -15 -16 -8 -3 -15 -13 -15 -23 0 -17 -37 -76
-76 -123 -12 -14 -33 -38 -47 -55 -14 -16 -29 -27 -33 -23 -11 12 -23 168 -22
308 0 95 2 118 10 98 5 -16 14 -28 19 -28z m2774 -435 c14 -99 25 -195 25
-212 0 -48 -154 -324 -170 -306 -4 4 -37 73 -74 151 -58 126 -65 148 -57 175
10 37 67 176 104 257 14 30 32 73 42 95 9 22 33 69 53 105 l37 65 8 -75 c4
-41 18 -156 32 -255z m-2498 211 c11 -3 28 -14 39 -24 55 -50 86 -71 97 -66 7
2 24 -8 37 -22 14 -15 18 -23 10 -19 -13 8 -13 7 -1 -9 8 -9 20 -15 27 -12 7
3 18 -2 25 -11 19 -22 52 -33 62 -19 5 6 7 2 4 -12 -4 -19 3 -26 47 -47 58
-27 96 -32 96 -12 0 9 2 9 9 -1 4 -7 12 -12 17 -10 13 3 57 -22 50 -29 -3 -4
-15 2 -26 12 -11 10 -20 15 -20 10 0 -13 33 -34 54 -35 17 0 97 -56 104 -72 2
-5 8 -8 13 -8 8 0 171 -129 189 -150 3 -3 25 -21 50 -40 25 -19 47 -37 50 -41
5 -6 185 -169 320 -289 46 -41 115 -105 154 -141 l70 -67 -26 -68 c-14 -38
-29 -82 -33 -99 -6 -29 -6 -29 9 -10 8 11 16 27 16 36 0 8 9 34 20 57 11 22
20 46 20 52 0 12 20 13 39 1 12 -8 13 -16 3 -49 -19 -64 -177 -373 -187 -365
-4 5 -5 3 -2 -4 4 -6 -22 -63 -58 -126 l-65 -114 -62 61 c-92 89 -416 397
-441 419 -12 10 -67 62 -122 116 -55 53 -163 150 -240 216 -76 66 -173 152
-215 190 -41 39 -124 113 -185 165 -60 52 -122 106 -137 119 -30 26 -49 77
-73 189 -23 113 -21 149 13 166 15 8 38 27 52 43 99 113 130 152 130 164 1 8
10 3 24 -12 13 -15 32 -30 43 -33z m-339 -26 c-2 -16 0 -31 5 -33 6 -2 11 -43
13 -92 2 -50 6 -100 9 -112 3 -15 1 -23 -7 -23 -9 0 -10 -2 -2 -8 7 -4 17 -34
24 -67 7 -33 15 -66 18 -74 3 -8 -16 3 -42 24 -43 37 -47 43 -42 74 3 19 11
39 18 44 9 6 6 7 -10 4 l-23 -5 4 96 c2 53 10 121 17 150 14 56 25 71 18 22z
m-1995 -148 c233 -119 516 -277 762 -425 336 -202 1067 -693 1217 -816 4 -3
-84 -6 -195 -6 -225 0 -239 -3 -387 -74 -102 -49 -186 -65 -293 -56 -109 9
-159 26 -342 115 -192 93 -261 116 -411 134 -124 15 -171 33 -246 93 -25 21
-76 62 -112 91 -80 65 -190 130 -231 138 -18 3 -92 -10 -185 -32 -99 -23 -193
-38 -260 -42 -97 -6 -101 -7 -50 -13 70 -8 161 4 327 43 116 28 137 30 171 20
56 -17 171 -95 280 -191 52 -45 105 -89 120 -99 l25 -16 -24 -7 c-13 -4 -74
-7 -136 -8 -135 -1 -265 -19 -260 -35 6 -17 331 -9 442 11 75 13 102 14 170 4
110 -17 166 -38 361 -132 93 -44 185 -87 204 -94 19 -7 49 -18 65 -25 l30 -12
-40 -20 c-47 -24 -102 -66 -165 -124 -66 -62 -96 -84 -127 -94 -16 -5 -53 -18
-83 -29 l-55 -20 38 -1 38 0 -2 -42 c0 -24 2 -57 6 -74 4 -20 3 -34 -4 -38 -6
-4 -11 -15 -11 -26 0 -22 -61 -77 -109 -97 -20 -9 -62 -21 -94 -27 -56 -11
-58 -13 -42 -29 25 -25 56 -21 132 18 129 65 178 139 153 229 -7 24 -9 49 -6
54 3 6 30 23 59 40 28 16 88 59 132 96 44 37 120 94 168 126 84 57 91 60 150
60 82 0 160 21 256 69 123 61 278 76 534 49 l117 -12 103 -82 c275 -220 496
-416 841 -747 133 -128 138 -134 126 -158 -7 -13 -63 -109 -125 -214 -62 -104
-145 -246 -185 -315 -41 -69 -105 -174 -143 -235 -39 -60 -81 -127 -94 -147
-44 -71 -76 -118 -80 -118 -2 0 -17 7 -32 15 -45 23 -341 106 -400 112 -48 5
-53 4 -49 -13 2 -10 18 -23 38 -30 51 -18 307 -92 363 -105 26 -6 50 -15 52
-20 9 -13 -112 -170 -147 -193 -25 -15 -50 -20 -103 -21 -65 0 -78 4 -189 58
-66 32 -126 56 -135 55 -9 -2 43 -35 114 -73 118 -62 136 -69 190 -69 33 -1
72 2 88 7 15 4 27 3 27 -1 0 -28 -345 -540 -480 -712 -49 -63 -122 -160 -162
-215 -81 -113 -356 -447 -524 -635 -111 -125 -339 -350 -355 -350 -16 0 -59
68 -84 133 -14 37 -35 111 -46 165 -12 53 -34 125 -50 160 -35 78 -143 244
-192 296 l-38 39 50 86 c68 120 77 153 57 221 -9 30 -41 97 -70 149 -30 53
-60 109 -65 124 -28 74 5 198 61 231 41 25 58 45 58 70 0 20 -99 233 -100 215
0 -4 16 -48 35 -98 19 -49 35 -99 35 -110 0 -11 -12 -29 -26 -40 -37 -29 -156
-29 -249 0 -57 17 -78 31 -132 83 -57 56 -65 61 -74 45 -8 -15 3 -28 63 -79
81 -67 145 -95 237 -106 l61 -7 0 -103 0 -103 47 -88 c69 -130 79 -153 93
-208 l12 -50 -63 -119 c-35 -65 -70 -121 -77 -123 -17 -7 -72 20 -106 52 -25
23 -27 30 -22 70 13 86 -18 151 -84 177 -35 14 -147 13 -164 -1 -8 -7 -32 -14
-54 -16 -21 -2 -43 -5 -48 -6 -43 -8 -80 27 -124 117 -24 47 -36 62 -44 54
-16 -16 46 -131 95 -175 42 -38 54 -42 62 -22 7 19 81 21 96 3 7 -8 14 -29 17
-48 9 -53 -10 -63 -92 -49 -36 7 -69 10 -71 7 -13 -13 9 -34 41 -40 20 -4 40
-15 46 -26 10 -19 11 -19 44 1 62 36 70 51 63 124 l-6 65 48 0 c95 0 162 -77
143 -165 -8 -40 -7 -50 12 -77 25 -37 117 -88 160 -88 17 -1 40 -8 51 -18 58
-48 177 -255 209 -361 9 -30 16 -56 16 -58 0 -2 -17 4 -37 13 -74 31 -136 45
-238 54 -84 6 -110 12 -137 31 -43 31 -47 36 -119 164 -61 108 -175 285 -184
285 -8 0 17 -52 50 -105 17 -27 59 -103 94 -167 76 -144 128 -212 173 -227 19
-6 81 -15 140 -19 90 -7 116 -14 179 -44 73 -34 75 -36 91 -89 10 -30 40 -94
68 -143 28 -48 49 -94 46 -101 -2 -7 -33 -34 -68 -61 -35 -27 -101 -81 -148
-120 -168 -142 -519 -346 -562 -328 -22 9 -80 95 -120 175 -68 139 -166 450
-203 644 -24 125 -20 173 21 271 l35 85 -17 77 c-15 66 -28 93 -98 197 -45 66
-90 139 -101 163 -16 38 -20 41 -34 28 -13 -14 -11 -22 17 -78 17 -35 53 -94
78 -133 60 -90 92 -160 100 -216 5 -37 0 -60 -26 -125 -28 -70 -32 -90 -32
-175 0 -53 3 -106 7 -118 5 -16 2 -21 -11 -21 -30 0 -156 49 -271 106 l-111
55 -23 82 c-12 45 -24 117 -27 160 -5 83 -18 97 -38 38 -6 -18 -25 -46 -42
-62 -38 -35 -40 -46 -10 -51 27 -4 64 -56 79 -112 20 -75 86 -138 178 -171 20
-7 70 -28 111 -48 41 -19 91 -37 111 -41 61 -11 80 -44 163 -286 69 -200 95
-260 164 -364 28 -44 52 -84 52 -88 0 -5 -21 -18 -47 -29 -27 -11 -65 -27 -86
-36 -50 -21 -41 -27 14 -9 24 8 73 22 109 31 64 16 64 16 83 -7 10 -13 29 -45
43 -72 30 -57 29 -108 -2 -172 l-19 -39 -115 -7 c-165 -11 -209 -21 -330 -78
-142 -65 -219 -83 -337 -77 -80 4 -102 9 -170 41 -132 63 -291 178 -426 308
-34 33 -122 101 -196 151 -74 51 -143 99 -155 106 -13 10 -10 3 9 -18 17 -18
82 -69 145 -112 122 -83 158 -113 234 -196 l47 -52 -38 -11 c-21 -6 -72 -15
-113 -21 -86 -13 -135 -4 -305 58 -103 38 -140 58 -188 102 -23 21 -36 25 -82
23 -43 -2 -75 6 -146 33 -88 34 -108 37 -95 17 9 -14 145 -78 195 -92 38 -10
45 -9 63 7 19 17 21 17 42 -8 12 -14 36 -34 54 -44 18 -11 31 -24 29 -29 -5
-14 -174 -85 -242 -101 l-60 -15 49 5 c27 3 106 28 174 55 69 28 129 50 135
50 6 0 56 -21 111 -47 98 -47 103 -48 196 -48 73 0 113 6 172 24 l77 24 38
-28 c21 -16 40 -32 43 -35 3 -4 30 -22 60 -42 160 -104 241 -138 334 -138 117
0 233 29 348 86 99 49 157 62 308 70 135 7 135 7 177 41 86 71 78 132 -34 280
l-25 32 34 14 c231 99 459 216 565 290 93 65 187 125 191 122 1 -1 -20 -26
-48 -56 -80 -86 -64 -89 28 -5 70 65 124 63 258 -8 125 -67 192 -114 270 -191
78 -77 96 -107 150 -250 34 -91 35 -97 20 -121 -23 -34 -130 -111 -201 -144
-107 -50 -161 -55 -378 -37 -106 9 -253 19 -327 22 -74 3 -162 9 -195 14 -33
5 -95 12 -137 16 -66 5 -78 3 -78 -9 0 -9 16 -19 43 -26 23 -6 58 -15 77 -20
121 -31 510 -65 755 -65 130 0 130 0 208 37 106 51 212 124 255 174 25 30 44
43 71 48 20 3 56 10 81 15 25 6 80 10 122 11 43 0 112 8 154 17 l78 17 47 -53
47 -53 7 -116 c3 -65 6 -170 5 -234 -1 -137 17 -257 60 -382 16 -49 29 -91 27
-92 -7 -7 -277 -64 -303 -64 -44 1 -103 32 -169 90 -33 30 -85 65 -115 79 -53
25 -62 26 -303 31 l-248 5 -67 71 c-83 89 -155 138 -201 137 -23 -1 -57 -17
-112 -55 -43 -29 -79 -56 -79 -60 0 -12 49 10 106 48 62 41 84 44 140 18 51
-24 204 -171 204 -196 0 -10 -6 -31 -14 -47 -13 -25 -36 -38 -124 -72 -36 -14
-163 -10 -207 7 -22 9 -53 18 -70 20 -24 4 -18 -1 25 -23 49 -24 67 -27 155
-27 84 -1 108 3 152 22 62 28 83 50 92 94 l7 33 174 -3 c199 -4 327 -16 377
-37 18 -8 63 -39 99 -70 36 -30 80 -63 97 -72 45 -25 159 -22 280 6 54 13 104
20 112 18 7 -3 35 -48 61 -99 44 -86 62 -107 223 -268 230 -231 260 -268 336
-421 86 -174 201 -520 191 -574 -14 -72 -62 -107 -246 -178 -264 -102 -350
-134 -615 -227 -350 -123 -411 -139 -375 -95 16 20 2 20 -110 0 -101 -18 -238
-19 -312 -4 -84 18 -136 50 -243 150 -123 115 -191 172 -230 191 -47 24 -231
68 -338 80 -86 10 -98 13 -102 32 -10 51 -35 215 -35 234 0 12 19 39 42 62 40
38 45 40 106 40 130 0 155 43 113 195 -28 100 -48 115 -156 115 -46 0 -87 -4
-90 -10 -4 -6 21 -10 67 -11 111 -2 120 -6 141 -69 11 -34 17 -78 15 -115 l-3
-60 -93 -5 -94 -5 -44 -47 c-42 -44 -44 -50 -44 -105 0 -32 9 -96 19 -143 11
-47 18 -85 18 -86 -6 -4 -505 -34 -559 -34 -73 0 -72 -1 -121 72 -104 154
-267 345 -244 285 5 -14 -10 -37 -25 -37 -4 0 -8 20 -8 45 0 42 -3 46 -52 83
-100 75 -133 75 -310 6 -86 -33 -92 -34 -151 -24 -115 21 -212 40 -239 47 -45
13 -123 81 -230 202 -56 62 -113 124 -127 138 -45 43 -255 185 -286 195 -16 5
-115 7 -220 6 -211 -3 -215 -2 -302 69 -54 44 -78 86 -115 198 -17 53 -46 114
-70 149 -73 104 -65 156 42 271 85 91 93 111 88 214 -5 87 -36 196 -60 213 -7
5 -42 7 -78 5 -103 -7 -125 0 -189 58 -64 60 -105 129 -116 195 -6 33 -17 53
-43 77 -20 18 -42 33 -50 33 -21 0 -10 -33 16 -46 33 -16 36 -22 23 -38 -15
-18 -42 -11 -113 31 -61 36 -79 53 -54 53 9 0 16 5 16 10 0 6 5 10 11 10 6 0
25 11 43 25 18 14 36 22 40 17 4 -4 6 -2 5 3 -2 6 46 57 106 114 61 57 122
116 137 130 15 14 43 40 64 56 20 17 56 46 78 66 72 62 120 96 146 102 14 4
36 23 50 44 35 52 80 97 111 110 22 10 34 8 65 -9 22 -11 48 -29 60 -39 11
-10 24 -19 28 -19 4 0 -7 12 -26 28 -43 35 -224 199 -358 322 -193 178 -484
431 -585 507 -180 137 -425 358 -425 384 0 27 185 290 295 420 16 20 66 80
110 134 44 54 91 109 104 122 25 25 57 30 63 12 7 -21 44 0 107 62 91 90 159
186 241 344 117 224 313 529 409 637 28 31 94 93 145 137 52 44 168 151 258
237 342 329 794 695 876 710 20 4 44 11 52 16 31 19 -98 -1 -139 -22 -24 -12
-46 -20 -51 -18 -5 2 5 23 21 47 26 38 30 50 26 92 -5 45 -2 51 36 96 70 83
74 88 57 78 -8 -5 -34 -24 -57 -43 -40 -32 -44 -33 -65 -20 -42 28 -107 251
-108 368 0 30 -1 67 -3 82 -4 23 -1 26 22 23 14 -3 42 -9 61 -15 60 -17 55
-11 -21 28 -88 45 -98 58 -80 107 11 32 11 39 -5 56 -17 18 -16 20 5 43 12 12
19 29 16 37 -4 10 25 33 92 74 111 67 449 293 504 336 20 16 41 29 46 29 5 0
8 -26 6 -57 -1 -32 -4 -119 -7 -193 -5 -180 -26 -226 -131 -278 -32 -16 -241
-82 -260 -82 -3 0 -5 -5 -5 -11 0 -15 49 -5 164 32 128 42 187 83 222 155 27
55 29 67 34 239 3 107 10 188 17 201 7 12 45 47 85 80 40 32 97 80 126 106 30
27 58 48 64 48 5 0 123 -58 261 -128z m-3533 99 c0 -5 -81 -87 -180 -183 -111
-107 -180 -180 -180 -192 0 -11 8 -28 17 -38 18 -20 5 -34 -376 -418 -79 -80
-167 -179 -195 -221 -35 -52 -75 -95 -127 -136 -119 -95 -129 -110 -220 -318
-24 -55 -71 -140 -106 -190 -159 -229 -212 -314 -227 -358 -9 -26 -47 -116
-86 -200 -67 -146 -79 -188 -62 -213 18 -28 79 -54 125 -54 58 0 69 -18 36
-59 -27 -33 -162 -233 -249 -368 -32 -50 -67 -96 -78 -102 -17 -9 -33 -2 -98
40 -44 29 -106 73 -139 98 -33 26 -78 58 -100 72 -318 203 -376 253 -401 342
-16 56 -16 57 9 106 34 64 114 188 128 196 6 4 19 -1 31 -11 20 -19 21 -51 3
-96 -4 -10 -3 -18 2 -18 6 0 26 33 46 73 20 39 52 99 72 132 20 33 49 83 65
110 88 158 129 215 222 307 38 36 68 72 68 80 0 7 9 20 20 28 11 8 20 18 20
22 0 8 38 56 127 166 20 23 38 41 40 38 3 -3 -21 -51 -54 -108 -32 -57 -107
-200 -165 -318 -137 -275 -216 -394 -305 -459 -42 -31 -43 -47 -1 -25 84 43
180 176 298 413 50 101 113 218 139 260 26 42 85 144 131 226 113 205 178 297
321 455 67 74 133 153 147 175 47 75 161 224 208 272 39 39 48 44 58 32 16
-20 52 -39 75 -39 12 0 73 53 150 130 164 162 297 279 337 296 81 34 454 79
454 55z m1420 -179 c0 -42 -229 -261 -361 -345 -31 -20 -88 -48 -125 -63 -69
-27 -98 -43 -90 -51 2 -2 64 8 137 22 147 29 341 89 461 141 92 41 99 42 67 8
-46 -50 -154 -126 -234 -164 -149 -71 -524 -171 -785 -210 -102 -15 -341 -27
-346 -18 -3 5 2 8 10 8 10 0 16 9 16 24 0 17 27 45 108 113 287 239 357 290
497 361 140 70 197 90 320 111 66 11 158 31 205 45 91 26 120 30 120 18z
m-2356 -249 c-16 -21 -30 -31 -32 -24 -2 6 9 28 24 48 16 21 30 31 32 24 2 -6
-9 -28 -24 -48z m10058 -253 c64 -95 246 -329 378 -485 56 -66 104 -126 107
-133 9 -21 -226 -671 -329 -910 -27 -64 -69 -164 -93 -222 -24 -58 -50 -120
-58 -138 l-14 -34 -31 119 c-63 242 -207 1025 -262 1431 -20 152 -21 150 46
243 33 46 85 119 114 161 64 90 60 91 142 -32z m-1072 -60 c58 -86 61 -97 36
-150 -24 -50 -114 -192 -146 -229 -26 -31 -38 -25 -97 48 -50 60 -58 86 -43
126 l12 30 23 -47 c32 -67 105 -166 105 -143 0 11 -89 166 -108 188 -14 16
-13 23 8 75 28 68 90 198 110 229 14 22 15 21 37 -23 12 -24 41 -71 63 -104z
m1895 -107 c-38 -123 -146 -383 -160 -383 -2 0 21 71 51 158 30 86 69 207 86
267 36 132 42 143 46 87 2 -25 -7 -77 -23 -129z m-9852 29 c26 -28 7 -44 -49
-40 l-49 3 27 28 c32 31 49 34 71 9z m-165 -201 c115 -58 214 -92 354 -122 89
-20 133 -23 315 -24 117 0 213 -3 213 -7 0 -13 -115 -141 -201 -223 -78 -75
-94 -85 -229 -145 -195 -88 -220 -112 -323 -322 -86 -174 -135 -245 -247 -363
-94 -98 -107 -122 -121 -222 -6 -43 -17 -85 -25 -94 -8 -8 -14 -20 -14 -26 0
-6 -7 -16 -15 -23 -8 -7 -15 -21 -15 -32 0 -32 40 -98 65 -108 28 -11 50 -50
65 -115 6 -27 20 -60 30 -76 28 -39 25 -61 -14 -87 -47 -32 -136 -127 -136
-146 0 -8 4 -17 9 -20 5 -4 -1 -18 -14 -34 -37 -43 -232 -289 -295 -372 -31
-41 -80 -114 -109 -162 -29 -48 -57 -91 -63 -94 -5 -3 -46 30 -91 74 -99 97
-199 181 -331 276 -117 85 -140 98 -175 99 -50 3 -401 237 -401 268 0 5 30 47
66 95 36 48 81 117 101 153 29 55 98 152 194 274 18 23 21 22 148 -18 41 -13
49 -12 93 7 83 35 158 131 261 329 333 645 404 769 520 904 33 39 81 102 105
140 62 98 175 265 179 265 2 0 47 -22 101 -49z m1971 -93 c-13 -18 -46 -62
-74 -98 -27 -36 -70 -94 -95 -130 -102 -150 -288 -385 -382 -484 -145 -154
-242 -218 -404 -270 -86 -27 -221 -50 -270 -44 l-31 3 56 95 c81 137 237 291
461 457 210 155 317 228 471 321 64 38 154 95 200 126 46 31 85 56 87 56 2 0
-7 -15 -19 -32z m5781 -276 c-13 -5 -59 30 -60 46 0 8 14 1 35 -15 19 -15 31
-29 25 -31z m875 5 c29 -30 57 -69 64 -88 19 -60 171 -672 167 -676 -2 -2 -14
11 -27 29 -13 18 -34 44 -46 58 -12 14 -31 36 -43 50 -24 28 -84 93 -254 273
-67 71 -122 135 -124 143 -5 19 179 264 197 264 7 0 37 -24 66 -53z m1511
-139 c-4 -57 -24 -159 -57 -286 -169 -650 -229 -878 -305 -1157 -63 -230 -89
-323 -101 -355 -3 -8 -7 -20 -8 -27 -2 -6 -8 -19 -15 -30 -10 -15 -10 -14 -5
12 6 29 6 29 -9 10 -14 -18 -15 -18 -16 -2 0 9 -3 17 -7 17 -16 0 -63 48 -98
99 -30 44 -35 58 -29 84 3 18 54 160 111 317 106 289 178 487 238 660 18 52
47 133 65 180 53 141 110 298 155 431 23 69 48 136 55 149 22 42 34 -2 26
-102z m-11273 30 c-8 -43 -23 -59 -20 -22 2 24 14 52 24 54 1 0 0 -15 -4 -32z
m57 -41 c0 -13 -5 -28 -11 -34 -8 -8 -7 -17 4 -33 11 -16 14 -37 10 -75 -5
-46 -3 -54 13 -57 15 -4 14 -6 -8 -12 -16 -5 -28 -12 -28 -18 0 -5 5 -6 10 -3
23 15 28 -8 9 -42 -42 -75 -287 -389 -378 -485 -104 -110 -131 -142 -131 -155
0 -8 -6 -16 -14 -19 -16 -6 -56 12 -56 26 0 14 76 174 104 219 14 22 26 52 26
66 0 26 15 34 23 13 3 -7 5 10 4 37 0 54 25 122 71 190 15 22 29 42 32 45 11
10 137 186 159 223 23 38 56 63 78 59 7 -2 15 9 19 23 3 14 12 25 19 25 7 0
15 7 19 15 8 23 26 18 26 -8z m12215 -217 c64 -126 79 -216 105 -615 18 -262
15 -267 -47 -95 -68 187 -71 201 -83 415 -6 99 -17 226 -25 283 -8 56 -15 105
-15 109 0 13 39 -45 65 -97z m-11925 -188 c0 -9 -6 -12 -15 -8 -10 3 -15 1
-13 -7 4 -23 -21 -57 -39 -50 -10 4 -14 2 -9 -5 6 -10 -129 -206 -180 -260
-14 -15 -30 -36 -36 -47 -14 -28 119 104 162 160 19 25 52 64 73 88 l38 42
-20 -53 c-27 -67 -122 -248 -177 -334 -60 -93 -160 -188 -199 -188 -11 0 -4
37 12 60 14 20 10 19 -21 -8 -40 -35 -39 -35 -129 -4 -39 13 -52 14 -68 4 -26
-16 -39 -7 -39 26 0 23 11 35 71 72 53 33 83 61 121 115 114 158 280 344 306
345 6 0 12 5 12 10 0 6 6 10 14 10 8 0 33 11 57 24 46 27 79 30 79 8z m850
-152 c0 -5 -5 -10 -11 -10 -5 0 -7 5 -4 10 3 6 8 10 11 10 2 0 4 -4 4 -10z
m-31 -51 c-14 -27 -12 -46 3 -31 7 7 19 12 28 12 12 -1 12 -3 -3 -14 -14 -11
-17 -25 -15 -58 2 -28 7 -42 16 -40 7 1 12 -9 12 -27 0 -16 6 -31 15 -35 8 -3
15 -15 15 -26 0 -11 8 -37 18 -58 11 -23 16 -48 13 -67 -8 -38 -73 -161 -110
-206 l-29 -34 -40 21 c-22 12 -44 19 -49 15 -27 -17 -46 -101 -23 -101 6 0 10
6 11 13 0 9 2 9 6 -1 2 -6 9 -10 14 -6 10 6 39 -19 39 -34 0 -5 -9 -21 -20
-35 -20 -25 -20 -25 0 -20 11 3 20 9 20 13 0 4 18 15 41 25 l40 19 30 -35 c35
-41 35 -44 6 -93 -32 -52 -100 -96 -148 -96 l-37 0 9 34 c12 42 8 63 -15 99
-10 15 -19 45 -20 67 0 22 -4 40 -8 40 -4 0 -9 9 -13 20 -3 10 -28 42 -56 71
-62 65 -68 85 -35 137 16 26 28 62 32 99 6 64 22 113 35 113 5 0 9 6 9 13 0 7
14 27 30 45 17 18 30 36 30 40 0 7 78 88 117 123 25 21 45 21 32 -2z m11366
-91 c65 -122 262 -463 374 -648 l106 -175 7 -360 c3 -198 9 -380 12 -405 7
-55 -9 -90 -20 -44 -4 16 -103 223 -219 459 -242 489 -228 447 -271 819 -13
116 -28 249 -34 296 -18 156 -12 164 45 58z m-501 -75 c27 -76 54 -167 61
-203 11 -55 40 -365 86 -920 11 -143 25 -250 44 -360 8 -47 15 -92 15 -100 -1
-36 -120 370 -160 545 -199 883 -203 904 -161 1030 13 39 27 75 31 80 4 6 10
22 14 38 3 15 10 27 14 27 4 0 30 -62 56 -137z m-10336 -150 c12 -49 27 -107
34 -129 14 -51 6 -75 -64 -182 -27 -41 -48 -76 -46 -77 2 -2 22 10 46 26 23
15 42 25 42 21 0 -4 -14 -54 -30 -112 -25 -86 -30 -124 -30 -211 0 -101 -1
-108 -30 -150 -29 -42 -30 -48 -29 -143 1 -55 5 -113 10 -129 7 -25 4 -36 -19
-66 -27 -34 -60 -82 -327 -476 -60 -88 -122 -179 -139 -201 -17 -23 -36 -50
-42 -60 -10 -16 -15 -17 -33 -6 -11 6 -27 12 -34 12 -19 0 -69 55 -60 65 5 4
2 5 -5 1 -7 -4 -27 7 -49 28 -33 30 -39 33 -44 18 -5 -14 -10 -11 -25 15 -11
18 -24 33 -31 33 -6 0 -20 11 -31 25 -11 13 -23 21 -27 17 -5 -4 -5 -1 -1 5 4
7 -1 19 -11 27 -10 8 -33 26 -50 41 -18 15 -32 31 -30 36 1 5 -22 31 -52 58
l-54 47 57 75 c32 41 91 128 133 194 115 185 218 325 520 710 43 55 126 172
185 260 105 157 224 315 237 315 4 0 17 -39 29 -87z m-2035 16 c-6 -40 -13
-55 -26 -57 -24 -5 -67 6 -67 17 0 12 89 105 95 99 3 -3 2 -29 -2 -59z m57 7
c0 -3 -4 -8 -10 -11 -5 -3 -10 -1 -10 4 0 6 5 11 10 11 6 0 10 -2 10 -4z m-26
-151 c-4 -8 -8 -15 -10 -15 -2 0 -4 7 -4 15 0 8 4 15 10 15 5 0 7 -7 4 -15z
m-24 -21 c0 -8 -4 -12 -10 -9 -5 3 -10 10 -10 16 0 5 5 9 10 9 6 0 10 -7 10
-16z m8441 -50 c-22 -48 -145 -239 -162 -250 -14 -9 -11 6 9 34 11 15 45 74
77 132 58 105 84 144 92 136 3 -2 -5 -26 -16 -52z m2304 -49 c-15 -36 -30 -63
-33 -60 -3 2 7 34 23 70 15 36 30 63 33 60 3 -2 -7 -34 -23 -70z m-8614 -125
c5 0 9 -6 9 -14 0 -7 7 -19 15 -26 8 -7 18 -30 21 -52 4 -21 11 -41 15 -44 5
-3 9 -16 9 -30 0 -14 -4 -22 -10 -19 -5 3 -7 0 -4 -8 8 -21 -69 -241 -102
-290 -10 -16 -13 -16 -29 10 -21 32 -45 156 -44 233 0 57 40 198 73 260 l19
35 9 -27 c6 -16 14 -28 19 -28z m6647 -122 c20 -23 71 -79 113 -124 109 -117
303 -350 563 -679 17 -21 42 -53 56 -70 30 -35 215 -271 277 -353 l42 -55 -24
-46 c-13 -25 -37 -59 -54 -75 -28 -27 -37 -29 -119 -32 -181 -5 -320 46 -434
159 -37 36 -79 89 -93 117 -32 63 -107 140 -163 169 -67 34 -155 49 -345 60
-139 7 -183 13 -196 25 -10 9 -23 16 -29 16 -7 0 -12 4 -12 10 0 5 -10 20 -23
32 -24 24 -63 117 -92 221 -23 82 -39 74 -32 -15 6 -80 41 -186 81 -245 14
-21 26 -43 26 -50 0 -17 -80 -27 -153 -19 -68 7 -195 37 -246 58 l-32 13 122
130 c106 113 199 216 313 345 17 20 69 78 116 130 47 52 116 131 155 175 72
84 132 145 140 145 3 0 22 -19 43 -42z m-6218 -12 c0 -15 -29 -55 -34 -47 -7
11 14 51 26 51 5 0 8 -2 8 -4z m-44 -21 c-3 -8 -9 -23 -12 -32 -5 -15 -4 -16
6 -3 9 12 10 10 4 -10 -3 -14 -13 -33 -22 -42 -8 -10 -11 -18 -6 -18 5 0 4 -4
-2 -8 -7 -4 -50 -84 -96 -178 -124 -251 -148 -287 -254 -380 -66 -58 -94 -66
-57 -16 38 51 64 112 63 150 -1 104 8 152 39 232 19 47 39 92 45 100 6 8 21
36 34 61 33 66 68 96 132 113 30 8 69 21 85 30 38 20 49 20 41 1z m10241 -173
c41 -88 67 -187 87 -330 25 -178 141 -920 177 -1127 18 -106 70 -378 168 -870
16 -82 44 -210 61 -284 16 -74 28 -136 26 -139 -15 -15 -273 614 -345 843 -42
134 -72 306 -112 645 -10 91 -26 212 -34 270 -17 122 -46 375 -74 650 -34 330
-42 431 -35 441 11 19 46 -24 81 -99z m-11640 -148 c-15 -15 -27 -23 -27 -18
0 10 43 53 49 48 2 -2 -8 -16 -22 -30z m10907 -284 c66 -266 110 -422 271
-945 93 -301 236 -703 347 -975 188 -458 207 -515 233 -695 17 -122 36 -230
67 -380 11 -55 22 -111 25 -125 3 -14 -30 38 -72 115 -157 286 -184 351 -186
442 -1 31 -8 78 -15 105 -13 51 -8 158 7 158 5 0 10 -19 10 -42 2 -68 3 -73
17 -70 11 2 13 -13 10 -67 -2 -38 0 -67 5 -64 4 2 7 13 7 24 0 25 16 25 23 -1
3 -11 10 -20 17 -20 13 0 8 46 -16 140 -8 30 -14 68 -15 85 0 26 -2 27 -9 10
-8 -18 -9 -18 -9 -2 -1 10 -5 15 -11 12 -6 -4 -10 12 -10 40 0 25 -8 60 -17
78 -20 37 -20 38 -22 72 0 14 -12 35 -26 47 -14 12 -28 37 -31 56 -5 25 -9 30
-16 20 -7 -9 -8 -4 -5 17 4 26 4 27 -8 12 -11 -15 -12 -12 -12 23 0 41 -12 66
-20 43 -3 -7 -14 -13 -25 -13 -17 0 -19 4 -13 28 13 48 11 57 -10 55 -25 -2
-62 66 -42 79 9 5 8 10 -5 20 -29 22 -62 127 -73 231 -1 11 -7 22 -13 26 -19
11 -40 83 -36 121 3 27 2 30 -5 15 -7 -18 -10 -15 -19 18 -6 21 -8 45 -6 52 3
7 -3 18 -13 23 -10 6 -31 35 -46 66 -16 31 -33 58 -38 62 -5 3 -7 9 -4 14 3 5
-31 54 -75 109 -44 55 -80 103 -80 106 0 3 -13 20 -30 38 -16 18 -30 38 -30
45 0 6 -5 12 -10 12 -6 0 -15 11 -20 25 -5 14 -16 25 -25 25 -9 0 -15 9 -15
23 0 13 -9 32 -20 42 -11 10 -20 22 -20 26 0 4 -13 22 -30 40 -16 18 -37 48
-45 66 -9 18 -20 33 -25 33 -6 0 -10 11 -10 24 0 19 -8 27 -35 36 -19 6 -44 9
-55 5 -13 -4 -20 -2 -20 7 0 7 -10 2 -21 -12 -17 -21 -19 -21 -10 -3 6 11 27
65 46 120 20 54 65 170 100 258 35 88 75 194 90 235 38 109 58 151 67 142 4
-4 41 -145 82 -312z m-9988 270 c27 -40 27 -40 9 -85 -9 -25 -25 -50 -36 -55
-10 -6 -19 -16 -19 -22 0 -6 10 -2 23 10 13 12 28 22 35 22 6 0 18 10 26 22
13 18 16 19 16 6 0 -9 -5 -20 -10 -23 -6 -4 -19 -24 -30 -46 -18 -35 -24 -39
-58 -39 -20 0 -41 4 -47 8 -8 6 -13 165 -7 209 2 10 41 30 64 32 4 1 20 -17
34 -39z m-981 -60 c-4 -6 -1 -17 5 -25 16 -19 3 -20 -15 -1 -10 10 -11 16 -2
25 14 14 20 14 12 1z m12577 -120 c34 -52 83 -128 110 -169 69 -105 67 -99 93
-249 27 -161 134 -688 199 -984 44 -200 56 -285 37 -274 -5 3 -12 18 -15 32
-4 14 -31 67 -61 117 -30 49 -55 91 -55 93 0 1 -26 45 -58 97 -33 51 -81 133
-107 183 -27 49 -77 134 -111 190 -62 100 -62 102 -73 205 -9 89 -32 517 -44
808 -4 97 -12 101 85 -49z m-12581 59 c9 -6 5 -7 -13 -3 -21 5 -28 2 -28 -9 0
-9 8 -18 18 -20 10 -3 6 -5 -10 -6 -16 0 -28 4 -28 10 0 18 35 57 41 47 4 -6
13 -14 20 -19z m1075 -25 c-3 -9 -6 -18 -6 -20 0 -2 -4 -4 -9 -4 -5 0 -7 9 -4
20 3 11 10 20 15 20 6 0 7 -7 4 -16z m-1152 -30 c3 -8 2 -12 -4 -9 -6 3 -10
10 -10 16 0 14 7 11 14 -7z m-4 -35 c11 -19 10 -20 -12 -8 -21 11 -22 11 -9
-5 12 -15 12 -19 0 -31 -12 -11 -16 -11 -29 3 -13 14 -12 15 4 9 14 -5 17 -3
12 8 -6 18 2 45 15 45 4 0 13 -9 19 -21z m12087 -199 c28 -52 73 -135 100
-185 27 -49 88 -160 135 -245 l86 -156 6 -114 c6 -110 19 -432 51 -1205 7
-192 10 -354 6 -358 -5 -5 -13 11 -19 35 -29 117 -104 469 -127 598 -14 80
-32 174 -40 210 -15 68 -50 250 -110 580 -20 107 -45 240 -55 295 -34 172 -99
656 -88 645 3 -3 28 -48 55 -100z m-5144 -175 c77 -34 213 -65 284 -65 33 0
84 9 117 20 56 20 62 20 279 5 122 -8 240 -20 262 -26 97 -27 163 -84 213
-184 34 -67 76 -110 172 -177 135 -94 219 -123 363 -123 53 0 97 -2 96 -5 0
-3 -38 -59 -84 -125 -46 -66 -110 -158 -141 -205 -59 -88 -235 -327 -276 -375
-75 -90 -152 -175 -157 -175 -3 0 -19 9 -36 20 -31 21 -81 28 -70 10 4 -6 24
-19 46 -31 22 -11 39 -26 37 -33 -5 -21 -152 -181 -318 -347 -206 -204 -445
-400 -470 -384 -18 11 -21 90 -6 160 20 95 58 197 123 335 98 207 130 342 103
440 -7 25 -13 116 -15 203 -1 86 -6 161 -10 165 -4 4 -5 -99 -1 -229 6 -233 6
-237 -20 -325 -14 -49 -46 -132 -71 -184 -67 -140 -123 -284 -146 -377 l-20
-83 -17 28 c-28 45 -85 93 -173 147 -45 28 -87 62 -94 75 -22 46 -33 153 -33
320 -1 152 -2 163 -16 138 -13 -25 -20 -28 -68 -28 -29 0 -73 7 -98 16 -40 13
-49 21 -67 63 -22 51 -49 148 -77 276 -10 44 -19 73 -21 64 -6 -24 34 -212 64
-301 24 -72 29 -80 72 -105 39 -23 57 -27 116 -27 l70 1 3 -166 c4 -263 5
-267 144 -366 40 -28 92 -75 115 -105 58 -75 114 -170 108 -181 -8 -12 -209
-144 -369 -241 -138 -84 -138 -98 -1 -21 109 62 289 174 350 218 l50 36 72
-75 c50 -51 75 -86 82 -114 7 -22 12 -171 13 -353 3 -350 6 -327 -78 -578 -48
-143 -61 -233 -45 -317 6 -37 10 -68 8 -71 -3 -2 -47 2 -98 9 -52 7 -186 12
-299 12 l-205 0 -96 95 c-104 105 -129 142 -190 282 -112 259 -128 331 -110
497 10 90 10 141 1 222 -10 92 -15 111 -44 155 -26 39 -36 68 -46 132 -15 100
-8 134 61 308 68 171 83 234 76 325 -12 140 -96 398 -229 700 -33 74 -65 147
-71 162 -11 27 -6 33 164 205 191 195 554 573 614 641 20 23 41 42 45 42 4 0
32 -11 63 -25z m-6146 -7 c-3 -8 -6 -5 -6 6 -1 11 2 17 5 13 3 -3 4 -12 1 -19z
m-72 -68 c-1 -17 -4 -33 -7 -36 -5 -4 -4 53 1 64 5 10 7 -3 6 -28z m8280 -466
c21 -8 65 -85 65 -113 0 -12 -10 -41 -22 -64 -11 -23 -58 -139 -103 -257 -45
-118 -117 -298 -160 -400 -42 -102 -102 -246 -132 -320 -30 -74 -57 -138 -61
-142 -4 -3 -45 2 -92 13 -47 11 -111 22 -142 25 -32 4 -62 12 -66 18 -5 6 -31
61 -57 121 -27 61 -61 132 -77 158 -15 26 -28 51 -28 55 0 4 13 21 28 37 15
17 57 66 92 111 36 44 76 94 89 110 44 54 196 261 286 388 195 276 198 279
302 271 35 -3 70 -8 78 -11z m3749 -421 c100 -164 262 -407 290 -432 22 -21
25 -31 20 -60 -14 -87 -56 -301 -69 -351 -8 -31 -42 -179 -75 -330 -34 -151
-76 -333 -95 -405 -18 -71 -41 -168 -50 -215 -24 -131 -25 -134 -35 -124 -14
14 -28 215 -40 534 -10 306 -34 873 -50 1195 -6 116 -10 242 -10 280 l1 70 27
-32 c15 -17 54 -76 86 -130z m-6720 20 c10 -32 52 -141 93 -243 194 -479 208
-580 108 -830 -64 -158 -77 -207 -84 -294 l-6 -79 -35 -3 c-19 -2 -45 -6 -57
-9 -12 -3 -91 -10 -175 -15 -84 -6 -166 -13 -183 -16 -30 -5 -30 -5 -54 75
-24 80 -68 159 -119 215 -105 113 -352 264 -475 291 l-29 6 37 33 c41 38 325
316 696 683 135 134 250 243 256 243 5 0 17 -26 27 -57z m3343 -97 c29 -42 53
-81 53 -86 0 -4 3 -10 8 -12 14 -6 84 -108 74 -108 -22 0 -193 -140 -234 -191
-61 -75 -104 -165 -129 -267 -40 -163 -120 -307 -199 -360 -38 -26 -140 -55
-140 -40 0 4 52 121 90 203 17 36 89 203 232 535 76 179 146 339 154 357 8 17
14 36 14 43 0 25 26 0 77 -74z m-16462 -16 c-3 -5 -10 -10 -16 -10 -5 0 -9 5
-9 10 0 6 7 10 16 10 8 0 12 -4 9 -10z m16630 -240 c10 -22 21 -37 26 -35 4 3
10 1 13 -3 6 -11 -88 -287 -104 -308 -18 -21 -290 -21 -290 0 0 8 4 17 9 20 5
3 12 18 15 33 7 29 60 113 99 160 12 14 56 53 97 86 41 33 79 66 83 73 14 25
34 15 52 -26z m-16658 8 c-3 -8 -6 -5 -6 6 -1 11 2 17 5 13 3 -3 4 -12 1 -19z
m15241 -210 c62 -125 132 -285 132 -303 0 -30 72 -60 103 -43 15 8 42 7 103
-2 46 -7 88 -16 95 -20 9 -6 2 -31 -24 -96 -42 -103 -138 -327 -142 -332 -8
-9 -187 93 -197 112 -26 48 -5 238 33 302 26 42 25 63 -1 39 -51 -46 -91 -271
-60 -344 13 -34 59 -67 143 -107 31 -14 59 -29 61 -33 2 -3 -27 -76 -66 -161
-38 -85 -84 -189 -102 -230 -18 -41 -58 -124 -88 -185 -31 -60 -108 -222 -173
-360 -234 -501 -325 -685 -336 -685 -5 0 -9 3 -9 8 0 4 -35 43 -77 87 -41 44
-84 98 -93 121 -13 30 -27 44 -49 52 -25 9 -31 16 -31 41 0 42 25 147 67 281
74 239 89 392 58 617 -7 59 -16 156 -18 214 -4 121 -6 124 -118 234 -53 52
-59 61 -43 70 32 19 169 129 284 228 117 101 303 286 440 435 41 44 80 81 86
82 6 0 16 -10 22 -22z m1108 -228 c1 -20 16 -83 34 -140 33 -109 34 -120 14
-285 -4 -37 -3 -36 20 22 21 53 28 89 40 205 1 10 6 21 10 25 5 5 6 -12 2 -37
-5 -40 -5 -42 5 -17 12 29 -4 111 -22 123 -5 3 -4 -7 1 -22 12 -30 7 -54 -10
-54 -7 0 -9 8 -5 21 4 13 3 19 -2 16 -5 -3 -18 20 -28 51 -9 31 -20 62 -22 68
-2 7 8 17 24 23 l28 11 -30 -6 c-25 -4 -28 -3 -17 8 15 15 182 25 182 11 0 -4
-13 -48 -30 -96 -16 -49 -30 -95 -30 -103 0 -8 -4 -14 -8 -14 -4 0 -16 -33
-25 -73 -9 -41 -40 -134 -68 -208 -28 -74 -78 -210 -111 -304 -118 -335 -158
-414 -378 -759 -238 -371 -279 -432 -373 -565 -50 -69 -122 -170 -160 -224
-39 -54 -76 -105 -83 -112 -11 -11 -36 -4 -143 35 -72 27 -157 56 -191 66 -33
9 -60 20 -60 25 0 5 19 39 43 76 24 38 63 104 87 148 24 44 87 157 140 250
167 294 346 641 502 975 17 36 74 155 128 265 l98 200 50 2 c123 4 220 113
302 343 28 80 37 92 64 88 17 -2 21 -11 22 -38z m793 -285 c27 -44 103 -168
168 -275 64 -107 129 -211 144 -230 55 -73 56 -67 -28 -181 -91 -125 -230
-265 -377 -381 -131 -104 -164 -123 -199 -115 -31 8 -257 228 -257 250 0 9 52
118 115 244 173 345 325 670 359 767 8 24 12 20 75 -79z m1748 -57 c-3 -8 -6
-5 -6 6 -1 11 2 17 5 13 3 -3 4 -12 1 -19z m1673 -467 c0 -51 -48 -201 -75
-237 -17 -22 -17 -23 20 121 13 50 26 107 30 128 9 53 25 46 25 -12z m-2645
-156 c100 -191 104 -200 99 -226 -4 -21 -3 -21 4 -4 8 18 11 16 26 -19 19 -46
21 -65 4 -48 -22 22 -41 14 -34 -14 5 -17 3 -23 -4 -19 -6 4 -10 -7 -10 -27 0
-39 -62 -170 -90 -188 -4 -3 -9 -10 -11 -17 -2 -6 -42 -57 -88 -113 -118 -142
-392 -379 -799 -692 -63 -49 -65 -48 -167 41 -74 65 -99 77 -140 67 -34 -9
-31 -19 8 -38 65 -33 192 -123 195 -140 2 -11 -13 -24 -47 -42 -27 -13 -139
-83 -248 -153 -249 -163 -270 -176 -307 -189 -18 -6 -33 -20 -36 -33 -5 -22
-7 -22 -55 19 -61 52 -178 110 -221 110 -43 0 -71 -32 -57 -63 15 -32 154 -99
195 -95 68 7 37 -29 -80 -93 -20 -11 -44 -24 -52 -29 -195 -118 -527 -326
-670 -419 -30 -19 -75 -46 -100 -60 -25 -13 -94 -52 -155 -86 -148 -83 -144
-83 -180 -34 -16 23 -63 78 -102 123 -40 44 -73 87 -73 94 0 14 28 46 151 176
90 96 150 165 239 275 62 77 70 83 185 141 127 64 171 75 162 40 -8 -30 -121
-215 -192 -315 -117 -163 -187 -221 -340 -281 -17 -7 -16 -8 10 -12 43 -6 93
12 166 59 189 123 378 316 604 619 60 80 127 162 149 182 23 21 115 84 206
141 91 57 203 131 250 164 47 32 113 79 148 104 164 115 582 459 646 532 16
18 18 18 13 4 -9 -25 98 60 192 153 42 41 110 116 151 165 120 145 201 235
212 235 6 0 33 -13 60 -30 77 -48 94 -40 58 27 -24 46 -25 64 -4 105 13 24 18
28 26 17 7 -10 8 -8 3 8 -9 32 4 49 19 26 7 -10 44 -76 81 -148z m1627 -458
c94 -158 101 -172 110 -245 5 -42 8 -131 5 -197 -5 -102 -13 -149 -56 -310
-47 -181 -79 -282 -80 -260 -1 6 -13 76 -27 155 -14 80 -31 183 -39 230 -16
105 -37 215 -80 435 -19 94 -47 265 -64 380 -17 116 -33 226 -37 245 -4 25 19
-9 81 -115 48 -82 132 -225 187 -318z m-2902 100 c63 -69 143 -145 185 -172
19 -13 17 -15 -29 -65 -45 -48 -47 -52 -30 -65 17 -13 17 -14 2 -15 -9 0 -20
-5 -24 -12 -5 -8 -2 -9 9 -5 85 32 -148 -205 -343 -349 -139 -103 -339 -238
-398 -268 -54 -28 -54 -24 15 94 14 25 56 92 93 150 37 58 84 137 105 175 21
39 62 108 91 155 69 115 131 224 193 348 29 56 56 102 59 102 4 0 36 -33 72
-73z m1404 47 c3 -8 2 -12 -4 -9 -6 3 -10 10 -10 16 0 14 7 11 14 -7z m-2279
-836 c-13 -35 -62 -140 -109 -235 -47 -95 -86 -177 -86 -183 0 -5 -5 -10 -12
-10 -18 0 -98 41 -98 50 0 12 17 22 23 13 2 -5 2 -2 0 6 -2 7 21 45 50 85 72
95 185 252 216 299 36 55 42 45 16 -25z m-1495 -63 c52 -8 119 -15 149 -15
l54 0 77 -80 c42 -44 82 -80 88 -80 7 0 12 -2 12 -5 0 -14 -161 -320 -229
-434 -62 -104 -82 -130 -86 -115 -54 164 -236 564 -311 681 -19 29 -34 58 -34
65 0 13 136 5 280 -17z m660 -301 c47 -20 114 -46 150 -59 36 -13 77 -28 93
-34 l27 -11 -50 -74 c-27 -41 -71 -93 -97 -116 -51 -44 -245 -140 -413 -204
-52 -19 -126 -51 -165 -70 -38 -20 -71 -33 -74 -31 -8 9 40 86 124 200 45 61
115 160 155 220 95 142 149 215 158 215 4 0 46 -16 92 -36z m6371 -341 c6 -21
28 -74 47 -118 37 -85 55 -152 41 -160 -12 -8 -179 139 -179 158 0 18 62 157
70 157 5 0 14 -17 21 -37z m-181 -517 c28 -30 67 -65 86 -78 18 -12 34 -27 34
-33 0 -5 -41 -118 -91 -250 -49 -132 -105 -280 -124 -330 -18 -49 -46 -121
-60 -160 -15 -38 -33 -91 -41 -117 -8 -27 -19 -48 -24 -48 -11 0 -11 35 -10
425 1 137 5 269 11 292 8 39 155 353 164 353 2 0 27 -24 55 -54z m-6436 -149
c23 -24 57 -54 76 -67 48 -32 90 -71 90 -84 -1 -34 -239 -161 -378 -203 -148
-44 -176 -51 -235 -56 -32 -3 -63 -9 -70 -12 -6 -4 96 99 228 229 132 129 242
235 244 236 2 0 23 -20 45 -43z m3722 -282 c-8 -8 -18 -15 -22 -15 -3 0 -1 7
6 15 7 8 17 15 22 15 5 0 3 -7 -6 -15z m2424 -172 c0 -87 -3 -182 -7 -212 l-6
-53 -39 93 c-21 52 -43 104 -50 116 -9 19 -4 36 38 118 27 52 52 95 57 95 4 0
7 -71 7 -157z m918 -69 c3 -150 1 -173 -16 -204 -10 -19 -43 -82 -74 -140 -58
-112 -114 -216 -156 -290 -213 -378 -256 -452 -260 -442 -4 14 32 121 101 297
49 126 229 646 294 850 31 98 38 107 77 102 l31 -3 3 -170z m-1038 -126 c127
-281 123 -268 117 -333 -8 -92 -70 -277 -227 -680 -45 -115 -95 -248 -112
-295 -43 -123 -139 -363 -149 -374 -5 -6 -9 8 -9 31 0 23 -18 92 -40 155 -63
174 -128 379 -146 459 -26 116 -18 156 61 284 94 154 384 659 452 788 8 15 17
27 19 27 3 0 18 -28 34 -62z"/>
<path d="M10022 17685 c0 -16 2 -22 5 -12 2 9 2 23 0 30 -3 6 -5 -1 -5 -18z"/>
<path d="M5058 16883 c12 -2 32 -2 45 0 12 2 2 4 -23 4 -25 0 -35 -2 -22 -4z"/>
<path d="M4818 16713 c12 -2 32 -2 45 0 12 2 2 4 -23 4 -25 0 -35 -2 -22 -4z"/>
<path d="M5680 16704 c0 -8 5 -12 10 -9 6 3 10 10 10 16 0 5 -4 9 -10 9 -5 0
-10 -7 -10 -16z"/>
<path d="M4568 16073 c7 -3 16 -2 19 1 4 3 -2 6 -13 5 -11 0 -14 -3 -6 -6z"/>
<path d="M4768 15993 c7 -3 16 -2 19 1 4 3 -2 6 -13 5 -11 0 -14 -3 -6 -6z"/>
<path d="M9165 7190 c11 -17 135 -76 204 -96 76 -22 90 -40 120 -153 31 -113
36 -186 18 -256 -16 -65 -34 -285 -22 -273 4 4 11 48 16 99 5 50 16 118 25
150 24 85 15 198 -26 319 -34 104 -58 149 -69 132 -5 -8 -18 -9 -46 -1 -71 18
-159 52 -184 71 -26 20 -46 24 -36 8z"/>
<path d="M7600 6969 c0 -37 78 -167 137 -229 l65 -70 -17 -122 c-15 -104 -15
-130 -5 -175 7 -29 17 -53 21 -53 4 0 10 26 13 58 3 31 10 93 16 138 18 146
15 168 -29 211 -39 38 -181 230 -181 245 0 4 -4 8 -10 8 -5 0 -10 -5 -10 -11z"/>
<path d="M9480 6254 l0 -146 43 -40 c23 -22 53 -47 66 -56 12 -8 33 -32 46
-51 22 -36 66 -155 79 -218 9 -41 26 -53 26 -18 0 65 -25 167 -54 221 -24 46
-49 72 -113 122 -84 65 -95 80 -68 102 22 18 21 192 -1 214 -8 9 -17 16 -20
16 -2 0 -4 -66 -4 -146z"/>
<path d="M7750 5550 l21 -29 -27 -78 c-14 -43 -38 -100 -53 -128 -63 -118
-123 -286 -107 -302 11 -12 24 10 60 109 20 53 55 137 77 185 43 93 69 166 69
196 0 22 -37 77 -51 77 -6 0 -1 -13 11 -30z"/>
<path d="M9772 5152 c-1 -62 3 -112 9 -125 7 -11 46 -62 88 -113 42 -51 101
-134 131 -184 66 -110 97 -147 112 -132 8 8 6 15 -5 26 -8 8 -32 46 -53 83
-58 106 -92 151 -180 245 -90 94 -89 91 -97 248 -2 30 -4 9 -5 -48z"/>
<path d="M17720 13177 c0 -1 -4 -18 -10 -36 -5 -19 -6 -30 -1 -25 10 11 24 64
16 64 -3 0 -5 -1 -5 -3z"/>
<path d="M13125 13560 c17 -4 46 -8 65 -8 l35 0 -30 8 c-16 4 -46 8 -65 8
l-35 0 30 -8z"/>
<path d="M15270 12178 c0 -28 45 -140 101 -250 40 -77 69 -120 118 -169 84
-84 113 -98 224 -110 112 -11 135 -26 160 -100 21 -60 33 -207 23 -262 -6 -32
-92 -172 -137 -222 -28 -32 -122 -224 -148 -302 -13 -40 -26 -73 -29 -73 -3 0
-28 18 -56 39 -28 22 -78 54 -111 71 l-60 32 -128 -6 c-136 -7 -262 7 -379 44
-32 10 -58 16 -58 14 0 -8 43 -25 126 -50 75 -22 117 -27 266 -33 l176 -7 57
-38 c31 -22 72 -57 91 -80 33 -39 34 -41 28 -103 -7 -68 1 -79 27 -37 l16 27
18 -78 c17 -76 63 -198 131 -343 40 -87 42 -111 11 -149 -13 -15 -33 -44 -46
-63 l-22 -35 28 35 c15 19 45 53 66 76 l38 42 -16 48 c-9 27 -34 85 -55 130
-119 245 -130 340 -69 554 39 137 80 221 182 373 37 54 69 115 73 134 15 81
-16 278 -58 358 l-20 40 -95 -3 c-109 -4 -147 10 -221 81 -86 82 -142 175
-226 372 -14 33 -25 52 -26 43z"/>
<path d="M15772 11810 c9 -27 28 -50 28 -35 0 9 -30 65 -35 65 -2 0 1 -14 7
-30z"/>
<path d="M15800 11740 c6 -11 13 -20 16 -20 2 0 0 9 -6 20 -6 11 -13 20 -16
20 -2 0 0 -9 6 -20z"/>
<path d="M14481 11513 c0 -6 -4 -20 -7 -30 -5 -14 -4 -15 5 -7 7 7 11 20 8 30
-3 11 -5 14 -6 7z"/>
<path d="M14559 11443 l-24 -28 28 24 c15 14 27 26 27 28 0 8 -8 1 -31 -24z"/>
<path d="M14440 11381 c0 -5 12 -16 26 -26 21 -14 25 -23 22 -51 -5 -40 8 -45
22 -8 18 46 12 64 -25 80 -40 16 -45 17 -45 5z"/>
<path d="M14410 10911 c0 -34 4 -61 10 -61 6 0 10 24 10 54 0 30 -4 58 -10 61
-6 4 -10 -17 -10 -54z"/>
<path d="M14150 10848 c-30 -40 -58 -79 -63 -85 -5 -7 -7 -13 -5 -13 3 0 29
33 58 73 30 39 58 78 63 85 5 6 7 12 5 12 -3 0 -29 -33 -58 -72z"/>
<path d="M15620 9830 c-6 -11 -8 -20 -6 -20 3 0 10 9 16 20 6 11 8 20 6 20 -3
0 -10 -9 -16 -20z"/>
<path d="M14120 9260 c32 -10 80 -12 80 -2 0 4 -24 8 -53 9 -39 1 -46 -1 -27
-7z"/>
<path d="M11850 8835 c13 -14 26 -25 28 -25 3 0 -5 11 -18 25 -13 14 -26 25
-28 25 -3 0 5 -11 18 -25z"/>
<path d="M11695 8610 c85 -94 132 -136 184 -164 50 -27 58 -28 145 -24 72 4
104 11 151 33 52 24 72 28 153 27 50 0 92 4 92 9 0 5 -18 16 -41 25 -26 11
-38 21 -35 30 5 12 1 12 -22 0 -50 -25 -91 -29 -120 -11 -15 10 -21 12 -14 4
6 -7 12 -18 12 -24 0 -20 -122 -57 -205 -62 -100 -7 -129 6 -230 102 -96 91
-117 107 -70 55z"/>
<path d="M11793 7983 c15 -2 37 -2 50 0 12 2 0 4 -28 4 -27 0 -38 -2 -22 -4z"/>
<path d="M8920 12307 c0 -25 -4 -49 -10 -52 -5 -3 -10 -16 -9 -28 0 -22 0 -22
10 1 5 13 15 30 23 38 12 11 13 21 4 47 -16 46 -18 46 -18 -6z"/>
<path d="M9274 12156 c-22 -24 -26 -72 -9 -90 22 -22 39 -21 29 2 -5 9 -8 36
-8 60 0 23 -1 42 -1 42 0 -1 -5 -7 -11 -14z"/>
<path d="M20620 10571 c0 -6 4 -13 10 -16 6 -3 7 1 4 9 -7 18 -14 21 -14 7z"/>
<path d="M17370 8172 c0 -12 19 -26 26 -19 2 2 -2 10 -11 17 -9 8 -15 8 -15 2z"/>
<path d="M5625 24330 c-3 -5 -1 -10 4 -10 6 0 11 5 11 10 0 6 -2 10 -4 10 -3
0 -8 -4 -11 -10z"/>
<path d="M9587 19169 c14 -14 135 -46 208 -54 36 -4 37 -4 10 5 -38 11 -219
60 -224 60 -3 0 0 -5 6 -11z"/>
<path d="M9855 19100 c11 -5 31 -9 45 -9 23 0 23 1 5 9 -11 5 -31 9 -45 9 -23
0 -23 -1 -5 -9z"/>
<path d="M9968 19073 c7 -3 16 -2 19 1 4 3 -2 6 -13 5 -11 0 -14 -3 -6 -6z"/>
<path d="M10596 18919 c3 -5 13 -9 22 -9 9 0 30 -7 47 -16 30 -16 115 -31 115
-21 0 6 -46 20 -137 42 -29 7 -50 8 -47 4z"/>
<path d="M552 18805 c-7 -60 -10 -110 -8 -113 3 -2 7 18 11 45 3 26 12 60 20
75 12 23 12 34 1 64 -12 36 -13 35 -24 -71z"/>
<path d="M10796 18862 c14 -14 319 -103 392 -116 48 -8 39 0 -20 19 -29 9 -62
20 -73 25 -37 15 -272 80 -291 80 -10 0 -14 -3 -8 -8z"/>
<path d="M11237 18729 c7 -7 15 -10 18 -7 3 3 -2 9 -12 12 -14 6 -15 5 -6 -5z"/>
<path d="M11390 18678 c12 -11 213 -89 222 -86 6 2 -23 17 -63 33 -41 16 -78
32 -84 36 -11 8 -83 24 -75 17z"/>
<path d="M15020 17176 c0 -2 7 -7 16 -10 8 -3 12 -2 9 4 -6 10 -25 14 -25 6z"/>
<path d="M2610 9585 c7 -8 16 -30 20 -48 l8 -32 1 36 c1 34 -13 59 -32 59 -5
0 -4 -7 3 -15z"/>
<path d="M2675 9510 c3 -5 10 -10 16 -10 5 0 9 5 9 10 0 6 -7 10 -16 10 -8 0
-12 -4 -9 -10z"/>
<path d="M2662 9471 c4 -13 18 -16 19 -4 0 4 -5 9 -11 12 -7 2 -11 -2 -8 -8z"/>
<path d="M3316 6291 c-8 -13 1 -157 12 -193 6 -18 13 -58 16 -89 3 -31 13 -78
22 -104 8 -26 17 -56 19 -67 3 -11 40 -84 83 -161 113 -202 305 -584 342 -678
17 -43 39 -115 49 -159 25 -103 87 -263 162 -415 73 -151 189 -305 306 -411
48 -43 90 -82 93 -85 3 -3 52 -47 110 -98 58 -51 143 -127 189 -170 228 -206
486 -394 691 -503 47 -25 150 -82 230 -128 80 -45 192 -107 250 -138 58 -30
166 -87 240 -127 135 -73 194 -102 565 -278 248 -117 262 -122 298 -108 25 10
26 13 16 32 -6 12 -9 34 -6 49 6 30 -3 37 -167 122 -39 20 -76 42 -83 48 -7 5
-16 10 -21 10 -5 0 -37 18 -71 40 -34 22 -64 40 -68 40 -16 0 -456 271 -758
466 -33 21 -64 41 -70 44 -5 3 -53 34 -105 69 -87 58 -174 120 -405 286 -123
88 -419 317 -423 327 -2 4 -10 8 -17 8 -7 0 -15 3 -17 8 -3 6 -39 36 -194 158
-64 51 -166 154 -211 214 -49 65 -102 168 -149 293 -19 50 -41 104 -49 121
-42 93 -223 504 -262 596 -61 145 -241 508 -263 530 -3 3 -18 32 -34 65 -58
121 -165 275 -234 340 -47 42 -78 59 -86 46z"/>
<path d="M4329 6131 c11 -7 12 -13 5 -23 -6 -7 -12 -35 -13 -63 -1 -37 1 -46
8 -35 15 21 14 7 -1 -27 -16 -35 -33 -52 -94 -93 -54 -38 -104 -83 -104 -95 0
-4 -8 -14 -17 -21 -11 -8 -13 -13 -5 -14 8 0 12 -16 12 -45 0 -29 4 -45 13
-45 6 0 44 11 84 25 79 26 188 51 276 61 63 7 76 18 100 82 22 55 21 80 -3
137 -11 26 -20 62 -20 80 0 19 -5 37 -10 40 -6 4 -47 15 -91 26 -85 20 -165
26 -140 10z"/>
<path d="M5125 5489 c-22 -4 -84 -15 -137 -23 -92 -13 -100 -16 -150 -59 -29
-24 -92 -72 -139 -105 -47 -33 -119 -93 -160 -134 -81 -79 -175 -196 -165
-205 3 -3 -2 -11 -10 -18 -25 -18 -9 -55 23 -55 35 0 103 21 103 32 0 5 11 13
25 18 14 5 25 14 25 20 0 5 7 10 15 10 8 0 32 15 52 34 34 30 94 67 108 66 3
0 11 4 18 10 48 42 172 126 229 155 78 39 164 60 197 47 22 -8 21 -9 -21 -43
-23 -20 -65 -50 -92 -68 -69 -47 -218 -173 -303 -255 -72 -68 -92 -97 -54 -76
11 5 31 10 44 10 25 0 25 -1 22 -70 -2 -39 0 -72 4 -75 9 -5 97 52 160 103 62
50 110 83 149 99 17 7 32 18 32 24 0 6 9 8 22 4 16 -6 20 -4 15 8 -13 35 195
166 296 187 64 13 175 10 142 -4 -90 -39 -153 -72 -168 -87 -10 -11 -28 -19
-41 -19 -49 0 -138 -120 -104 -141 21 -13 37 -11 179 25 205 51 269 59 420 52
74 -3 154 -8 179 -11 25 -3 52 -1 60 4 12 8 9 14 -13 37 -17 16 -27 38 -27 55
0 59 -117 92 -322 93 -76 1 -138 4 -138 7 0 4 13 12 30 19 16 7 39 21 51 31
20 17 21 22 9 44 -18 35 -79 94 -115 112 -16 9 -54 33 -85 54 -31 21 -85 52
-120 68 -55 26 -76 31 -135 30 -38 -1 -88 -5 -110 -10z"/>
<path d="M6545 4880 c-22 -5 -80 -6 -130 -3 -81 5 -92 4 -108 -15 -30 -33 -14
-69 34 -77 21 -4 49 -15 63 -26 25 -20 105 -44 183 -54 60 -8 103 -24 103 -38
0 -6 -23 -35 -52 -64 -28 -29 -49 -55 -46 -58 3 -4 35 7 70 24 103 49 379 114
483 112 72 0 95 5 95 24 0 23 -38 41 -129 64 -89 22 -211 28 -211 11 0 -5 -7
-10 -16 -10 -10 0 -14 6 -11 14 10 25 -26 45 -128 70 -134 33 -153 35 -200 26z"/>
<path d="M4378 4873 c7 -3 16 -2 19 1 4 3 -2 6 -13 5 -11 0 -14 -3 -6 -6z"/>
<path d="M8190 4467 c-130 -49 -206 -108 -291 -223 -67 -91 -145 -305 -128
-351 11 -29 -31 -152 -93 -270 -26 -51 -43 -93 -38 -93 6 0 10 6 10 14 0 8 3
16 8 18 20 9 76 94 123 188 28 58 65 125 82 150 57 85 162 194 266 276 114 91
202 142 330 189 47 17 86 36 88 42 9 26 -160 93 -231 93 -23 -1 -79 -15 -126
-33z m-30 -109 c-121 -114 -129 -120 -141 -112 -9 5 -10 2 -6 -11 6 -14 3 -16
-12 -12 -11 2 -29 -2 -41 -10 -35 -24 -35 -6 0 23 20 18 30 33 27 45 -3 12 2
20 13 24 10 3 21 12 24 20 3 8 10 15 15 15 5 0 35 18 67 40 36 24 71 39 89 40
30 0 29 -1 -35 -62z m-193 -103 c-4 -8 -12 -15 -19 -14 -10 0 -10 2 0 6 6 2
12 12 12 21 0 8 3 13 6 9 4 -3 4 -13 1 -22z m15 -67 c-7 -7 -12 -8 -12 -2 0
14 12 26 19 19 2 -3 -1 -11 -7 -17z"/>
<path d="M8040 4315 c0 -8 4 -15 10 -15 5 0 7 7 4 15 -4 8 -8 15 -10 15 -2 0
-4 -7 -4 -15z"/>
<path d="M8750 4389 c-70 -14 -74 -16 -55 -35 13 -13 23 -14 58 -6 23 6 72 14
109 17 37 4 75 13 85 21 16 12 7 13 -67 13 -47 -1 -105 -5 -130 -10z"/>
<path d="M9568 4162 c-73 -26 -161 -96 -277 -220 -247 -263 -356 -453 -459
-792 -39 -127 -67 -279 -54 -292 9 -9 49 89 87 214 60 197 136 367 210 467 19
25 49 66 67 91 172 237 238 298 429 396 159 82 182 101 163 132 -16 24 -105
27 -166 4z"/>
<path d="M11298 4158 c-35 -28 -51 -110 -88 -458 -11 -102 -24 -228 -30 -280
-6 -52 -13 -192 -17 -310 -7 -266 8 -273 32 -15 9 99 32 304 50 455 19 151 39
324 45 385 7 81 16 123 35 161 14 28 25 56 25 62 0 16 -32 15 -52 0z"/>
<path d="M24554 3520 c0 -91 2 -128 3 -82 2 45 2 119 0 165 -1 45 -3 8 -3 -83z"/>
<path d="M24553 3240 c0 -25 2 -35 4 -22 2 12 2 32 0 45 -2 12 -4 2 -4 -23z"/>
<path d="M13680 2790 c0 -5 18 -10 40 -10 22 0 40 5 40 10 0 6 -18 10 -40 10
-22 0 -40 -4 -40 -10z"/>
<path d="M14240 2710 c0 -5 18 -10 40 -10 22 0 40 5 40 10 0 6 -18 10 -40 10
-22 0 -40 -4 -40 -10z"/>
<path d="M7013 2372 c-34 -5 -28 -23 7 -20 17 1 30 6 30 10 0 11 -13 14 -37
10z"/>
<path d="M24553 55 c0 -33 2 -45 4 -27 2 18 2 45 0 60 -2 15 -4 0 -4 -33z"/>
</g>
</svg>
